<?xml version="1.0" encoding="UTF-8"?>
<svg id="_レイヤー_1" data-name="レイヤー 1" xmlns="http://www.w3.org/2000/svg" viewBox="0 0 981.93 1078.65">
  <defs>
    <style>
      .cls-1 {
        fill: #e18a8b;
      }

      .cls-2 {
        fill: #f1f1f1;
        stroke: #c9c9c9;
        stroke-miterlimit: 10;
        stroke-width: 3px;
      }
    </style>
  </defs>
  <g>
    <path class="cls-2" d="M572.22,210.1c.09.4.23,1.06.31,1.46l.3,1.52c.08.4.35.88.59,1.05.25.18.73.15,1.08-.07l.54-.34c.35-.22.71-.72.8-1.12l.59-2.6c.09-.4.08-1.01-.03-1.36-.11-.35-.09-.95.05-1.34l.02-.06c.14-.39.44-.82.67-.96.23-.14.48-.59.55-.99l.14-.79c.07-.4-.19-.64-.59-.53l-.53.15c-.39.11-1.04.3-1.43.42l-1.75.52c-.39.12-.92.48-1.18.8l-.39.5c-.25.32-.39.91-.3,1.31l.54,2.42Z"/>
    <path class="cls-2" d="M640.23,28.49l2.46,2.28c.24.22.71.41,1.03.41h.35c.33,0,.81-.16,1.08-.36l1.35-1c.26-.2.62-.59.78-.87l.21-.35c.17-.28.24-.77.16-1.09l-.3-1.16c-.08-.32-.29-.81-.46-1.09l-.72-1.18c-.17-.28-.56-.6-.87-.71-1.31-.46-2.84-1.31-4.27-.79-.56.2-.91.79-1.19,1.34-.65,1.28-.42,2.22-.17,3.58.06.32.31.77.55.99Z"/>
    <path class="cls-2" d="M631.12,10.4c.07.32.29.8.48,1.07l.18.25c.19.27.38.75.43,1.08l.87,5.86c.05.32.22.82.38,1.11l.39.71c.16.29.51.43.77.32.27-.11.52-.47.57-.8l.28-1.91c.05-.32-.03-.83-.16-1.13l-.03-.07c-.14-.3-.15-.8-.04-1.1l.3-.82c.11-.31.19-.83.17-1.16l-.09-1.64c-.02-.33-.16-.83-.32-1.12-.37-.68-.51-.84-.95-1.09-.11-.06-.24-.13-.4-.22-.23-.12-.31-.4-.48-.6-.2-.23-.5-.32-.77-.45-.77-.39-.43-1.55-1.52-1.63-.02,0-.26-.02-.26-.02-.33-.03-.53.22-.46.53l.66,2.83Z"/>
    <path class="cls-2" d="M868.19,119.32c-.16-.19-.49-.38-.73-.43l-1.69-.34c-.24-.05-.61.02-.81.15-.35.23-.85.4-1.12.71-.73.81-.29,1.82.24,2.6.23.33.45.75.85.88.47.15,1.05.11,1.53.1.48,0,.82-.36,1.19-.64.2-.15.43-.46.51-.69l.44-1.24c.08-.23.02-.57-.14-.76l-.28-.33Z"/>
    <path class="cls-2" d="M890.88,107.79c-.26-.2-.73-.31-1.05-.25l-.84.17c-.32.07-.78.3-1.03.52l-1.43,1.29c-.24.22-.48.67-.52.99l-.07.53c-.04.33-.34.61-.67.64l-5,.39c-.33.03-.62.31-.66.64l-.28,2.62c-.04.33.2.53.52.46l.59-.14c.32-.07.69.11.82.41l.38.88c.13.3.5.52.83.5l.56-.05c.33-.03.74-.27.92-.55l.35-.53c.18-.27.6-.52.92-.55l1.08-.09c.33-.03.82-.2,1.09-.39l2.78-1.9c.27-.18.49-.6.49-.93v-.04c0-.33.27-.62.59-.65l.9-.08c.33-.03.66-.31.75-.63l.22-.82c.08-.32-.06-.74-.32-.94l-1.93-1.5Z"/>
    <path class="cls-2" d="M854.15,129.12l-.81-.08c-.49-.05-1.21.08-1.6.29-.39.21-1.11.35-1.6.33l-1.06-.06c-.49-.03-1.21.2-1.6.5l-2.07,1.59c-.39.3-.93.88-1.21,1.29l-.22.33c-.28.41-.81.99-1.19,1.31l-.37.3c-.38.31-.9.91-1.16,1.33l-.16.26c-.26.42-.73.81-1.06.86-.32.06-.98,0-1.46-.1l-1.06-.25c-.48-.11-1.2-.44-1.59-.73l-1.26-.91c-.4-.29-1.01-.81-1.35-1.17l-1.68-1.73c-.34-.35-.82-.99-1.06-1.42,0,0-1.36-2.45-1.36-2.52s-.96-5.26-.96-5.26c-.09-.48-.06-1.27.07-1.74l.05-.19c.13-.47.35-.96.48-1.07.14-.12.51-.18.82-.15.91.1,1.41.36,2.18-.25.18-.14,1.41-2.07.76-2.13-.89-.09-1.58-.17-2.44-.4-.03,0-4.58-1.23-4.58-1.23-.48-.13-1.23-.4-1.68-.6l-.56-.25c-.45-.2-.98-.74-1.18-1.19l-1.13-2.52c-.2-.45-.59-1.15-.86-1.56l-.92-1.39c-.27-.41-.51-1.15-.52-1.64l-.03-.99c-.01-.49.23-1.2.54-1.56.31-.37.67-1.06.8-1.53l.19-.69c.13-.47.16-1.26.07-1.74,0,0-.2-1.06-.13-1.08.07-.02,1.87-4.32,1.87-4.32.19-.45.62-1.12.96-1.47l.33-.35c.34-.36.85-.98,1.13-1.38l1.39-1.99c.28-.4.58-1.06.67-1.45.09-.4.17-1.12.17-1.61v-.05c0-.49.15-1.27.32-1.74l.36-1c.17-.46.56-1.05.86-1.31.31-.26.74-.72.97-1.03.23-.31.55-.93.73-1.39l.8-2.08c.18-.46.34-1.1.37-1.43.03-.33.25-.76.5-.97.25-.21.37-.77.28-1.25l-.63-3.29c-.09-.48-.4-.88-.68-.88s-.7.35-.93.79l-.14.26c-.23.43-.67,1.1-.98,1.49l-1.58,2c-.3.39-.76.9-1.01,1.15-.25.25-.6.82-.77,1.28l-.74,1.95c-.17.46-.64,1.08-1.03,1.37l-1.74,1.29c-.39.29-.99.83-1.33,1.19l-1.69,1.82c-.33.36-.93.89-1.33,1.18l-1.36.99c-.4.29-1.12.58-1.61.64l-.11.02c-.49.06-1.1.3-1.36.51-.26.22-.57.79-.68,1.27l-.45,1.89c-.11.48-.51,1.14-.87,1.47l-2.4,2.16c-.37.33-.73.89-.81,1.24-.08.36-.49.87-.9,1.14l-1.01.66c-.41.27-1.14.58-1.62.7l-2.09.5c-.48.11-1.27.23-1.76.26l-2.07.12c-.49.03-1.29,0-1.78-.06l-2.15-.27c-.49-.06-1.28-.18-1.77-.27l-3.75-.68c-.48-.09-1.27-.26-1.75-.38l-2.41-.61c-.48-.12-1.11-.54-1.41-.93l-1.7-2.25c-.3-.39-.6-1.07-.66-1.51-.07-.44-.18-1.19-.24-1.68l-.09-.71c-.06-.49-.33-1-.6-1.15-.27-.14-.85-.13-1.29.04s-.77.7-.72,1.19l.04.41c.05.49.04,1.29-.02,1.78l-.03.24c-.06.49-.42,1.14-.8,1.45l-.5.41c-.38.31-1.06.57-1.51.58-.45,0-1.05-.14-1.33-.32-.28-.18-.44-.73-.35-1.22l.48-2.69c.09-.48.34-1.04.57-1.24.23-.2.42-.53.42-.75s-.38-.49-.85-.61l-.26-.07c-.48-.12-1.09-.18-1.37-.13-.28.05-.91.03-1.39-.05l-2.11-.35c-.49-.08-1.07.21-1.3.64l-.82,1.53c-.23.43-.81.67-1.27.52l-.08-.03c-.47-.15-1.25-.31-1.74-.35l-.75-.07c-.49-.04-1.29-.06-1.78-.03l-3.21.16c-.49.02-1.07-.31-1.28-.74-.21-.43-.62-1.11-.91-1.51l-1.22-1.7c-.29-.4-.74-1.06-1.02-1.47l-.57-.85c-.27-.41-.89-.84-1.36-.96l-2.29-.58c-.48-.12-1.26-.15-1.74-.07-.48.08-1.18-.11-1.55-.43l-3.77-3.17c-.38-.32-1.05-.74-1.5-.95l-.49-.22c-.45-.21-.93-.76-1.07-1.23l-.31-1.02c-.14-.47-.6-1.07-1.02-1.32l-7.82-4.78c-.42-.26-1.13-.63-1.58-.83l-1.69-.74c-.45-.2-1.02-.71-1.27-1.13l-.36-.62c-.25-.42-.78-1-1.18-1.29l-1.55-1.1c-.4-.28-.99-.82-1.31-1.2l-3.96-4.65c-.32-.37-.88-.95-1.24-1.28l-.86-.78c-.36-.33-.93-.9-1.25-1.27l-6.47-7.31c-.33-.37-.68-1.06-.78-1.54l-.06-.29c-.11-.48-.45-1.18-.77-1.56l-1.92-2.26c-.32-.37-.66-1.08-.75-1.56v-.03c-.1-.48-.42-1.2-.71-1.6l-.48-.65c-.29-.4-.65-1.1-.8-1.57l-.11-.33c-.15-.47-.56-1.13-.91-1.48l-5.33-5.21c-.35-.34-.89-.94-1.19-1.33l-5.7-7.19c-.31-.39-.79-1.03-1.08-1.42l-2.17-2.98c-.29-.4-.86-.94-1.28-1.21l-1.54-1.01c-.41-.27-1.11-.67-1.55-.88l-.83-.41c-.44-.22-.98-.75-1.21-1.19l-1.18-2.33c-.22-.44-.73-1.04-1.12-1.33l-.16-.12c-.39-.3-.84-.92-1-1.39l-.13-.39c-.16-.47-.04-.89-.53-.99l-.99-.34c-.48-.1-.86.4-1.17.78l-.21.26c-.31.38-.61,1.09-.66,1.58l-.21,1.95c-.05.49-.37,1.18-.71,1.54l-.22.23c-.34.36-.98.8-1.44.99l-.58.23c-.46.18-1.23.3-1.72.26h-.15c-.49-.05-1.12.04-1.39.19-.27.15-.73.26-1.02.25-.29-.01-.67-.27-.84-.57-.26-.43-.46-.89-.76-1.3-.14-.19-.31-.42-.53-.53-.3-.14-.55.02-.84.09-.03,0-.06.02-.09.02-.01,0-.03,0-.04.02,0,.01,0,.03,0,.04.05.64.27,1.27.37,1.91.08.49.28,1.26.46,1.72l.36.96c.17.46.14,1.2-.07,1.65l-.88,1.86c-.21.44-.51,1.19-.66,1.66l-1.13,3.42c-.15.47-.2,1.24-.1,1.73l.44,2.22c.1.48.34,1.25.53,1.7l2.72,6.26c.2.45.51,1.19.71,1.64l5.16,12.07c.19.45.38,1.22.42,1.71l.46,5.87c.04.49.12,1.29.17,1.78l.39,3.29c.06.49.04,1.29-.03,1.77l-.28,1.86c-.07.49-.28,1.1-.46,1.36-.18.26-.35.87-.39,1.36l-.37,5.17c-.04.49-.23,1.26-.43,1.71l-2.05,4.58c-.2.45-.62,1.13-.94,1.51l-.05.06c-.31.38-.54,1.09-.49,1.58l.44,5.17c.04.49.07,1.29.06,1.79l-.03,1.89c0,.49.04,1.29.1,1.78l.62,4.93c.06.49.02,1.28-.09,1.76l-.93,3.92c-.11.48-.36,1.24-.56,1.69l-.49,1.14c-.19.45-.68,1.06-1.08,1.34l-1.33.95c-.4.29-1.06.6-1.47.69-.41.1-1.07.41-1.46.71l-.3.23c-.39.29-1.11.64-1.58.78l-.37.1c-.47.14-1.16.52-1.52.85l-.86.78c-.36.33-.66.96-.66,1.4s-.26,1.11-.57,1.48l-.5.61c-.31.38-.44,1.07-.28,1.54l1.6,4.62c.16.46.49,1.2.73,1.63l.43.77c.24.43.2,1.11-.08,1.52l-.81,1.17c-.28.4-.47,1.13-.42,1.62l.07.7c.05.49.3,1.17.56,1.51.26.34.76.84,1.12,1.12s.81.87,1.01,1.32l.87,1.99c.2.45.3,1.22.24,1.71l-.5,3.59c-.07.49-.36,1.21-.64,1.62l-2.59,3.66c-.28.4-.83.99-1.21,1.3l-2.35,1.94c-.38.31-1.06.72-1.52.9l-1.67.67c-.46.18-1.18.15-1.62-.09l-1.6-.85c-.43-.23-1.18-.5-1.67-.59-.98-.19-1.73-.15-2.19-1.07-.43-.85-.16-2.49-1.53-2.49-.48,0-1.23.17-1.68.38l-1.66.78c-.45.21-1.08.39-1.41.4-.33.01-.79.14-1.02.27-.23.14-.65.44-.92.67-.27.23-.75.42-1.07.42s-.82-.26-1.12-.57c-.3-.31-.49-.86-.42-1.22.07-.36-.2-.88-.6-1.17-.4-.29-1.12-.52-1.61-.52h-.15c-.49,0-1.27-.14-1.73-.31l-.76-.28c-.46-.17-1.01-.67-1.21-1.1-.2-.44-.63-.87-.94-.97-.31-.1-.89-.42-1.28-.72l-.93-.71c-.39-.3-.97-.85-1.29-1.22l-.62-.73c-.32-.37-.97-.78-1.45-.9l-.13-.03c-.48-.12-1.06.13-1.3.56l-.33.6c-.24.43-.83.82-1.32.87l-1.69.16c-.49.05-.98.48-1.08.96l-1.04,4.81c-.1.48,0,1.23.22,1.67l.9,1.76c.22.44.8.88,1.28.98l.19.04c.48.1,1.16.47,1.5.83l1.69,1.74c.34.35.74.99.89,1.42.14.43.5.93.78,1.1.29.17.67.69.84,1.15l.1.27c.18.46.56,1.02.86,1.24.3.23.41.79.24,1.25l-.15.44c-.16.46-.66,1.01-1.11,1.22l-2.7,1.23c-.45.2-1.05.7-1.33,1.1l-1.31,1.86c-.28.4-.59,1.13-.68,1.61l-.02.1c-.09.48-.46,1.15-.83,1.47l-1.01.9c-.37.33-.61.99-.55,1.48l.02.13c.07.49.01,1.26-.12,1.72-.13.46-.64.82-1.14.79l-.3-.02c-.49-.03-1.04-.39-1.21-.81-.17-.42-.66-.97-1.08-1.22l-.77-.46c-.42-.25-.97-.11-1.22.31l-.54.92c-.25.42-.53,1.13-.62,1.57-.09.44-.51,1.01-.94,1.26l-1.15.69c-.42.25-.98.8-1.24,1.22l-.13.2c-.26.42-.78.87-1.15,1-.37.13-1.02.11-1.45-.06-.43-.16-1.17-.2-1.65-.08l-2.62.65c-.48.12-1.12.53-1.43.91l-1.51,1.86c-.31.38-.49,1.09-.39,1.57l.48,2.46c.09.48.23,1.28.29,1.76l.61,4.41c.07.49-.04,1.26-.23,1.71l-1.35,3.16c-.19.45-.58,1.08-.85,1.4-.28.32-.5.98-.5,1.47v.75c0,.49.19,1.1.43,1.36.24.26.31.84.17,1.3-.14.46.05,1.09.44,1.39l1.32,1.05c.39.31,1.06.51,1.5.46.44-.05.93.18,1.08.5.15.33.3.79.34,1.02.03.24.24.79.47,1.22l.67,1.28c.23.44.8.89,1.28,1l2.73.64c.48.11,1.08.55,1.33.97l2.55,4.28c.25.42.63,1.13.84,1.58l.43.92c.21.45.48,1.2.59,1.68l.25,1.02c.12.48.13,1.26.03,1.75l-.42,2.05c-.1.48-.22,1.28-.27,1.77l-.11,1.05c-.05.49-.49.96-.97,1.04-.48.08-.88.55-.88,1.04v.04c0,.49-.24,1.22-.52,1.62l-1.26,1.75c-.29.4-.57.94-.63,1.21-.06.27-.19.88-.28,1.36l-.78,4.06c-.09.48-.05,1.26.1,1.73l1.77,5.56c.15.47.55,1.15.88,1.5,0,0,1.01,1.08,1.01,1.08.71.75,1.35.35,2.23.21,1.05-.17,1.68.09,2.41.88l.09.1c.33.36.86.58,1.16.49.31-.09.75-.52.98-.96l1.25-2.33c.23-.43.8-.92,1.26-1.09l4.05-1.45c.46-.17,1.17-.54,1.57-.83l.6-.44c.4-.29.84-.76.98-1.05.14-.29.03-.85-.25-1.26l-.17-.25c-.28-.4-.47-1.13-.42-1.62l.39-4c.05-.49.42-1.12.83-1.39l.12-.08c.41-.27,1.13-.59,1.61-.7l.75-.17c.48-.11,1.2-.43,1.6-.72l1.64-1.19c.4-.29.82-.91.95-1.39l.38-1.47c.12-.48.57-1.07,1-1.31l.27-.16c.43-.24,1.1-.41,1.48-.37.39.04.96.39,1.27.77,0,0,.02.03.02.03.51.63.6,1.52,1.3,2,.77.53,1.82.24,2.67.55l4.66,1.72c.46.17,1.09.59,1.39.93.3.34.94.54,1.42.45.48-.1,1.08-.17,1.33-.16.25,0,.81-.19,1.24-.43l.73-.41c.43-.24.97-.8,1.2-1.23l.43-.81c.23-.43.7-.71,1.05-.6.35.1.98-.02,1.4-.28l1.11-.68c.42-.26.66-.66.53-.89-.13-.23-.61-.57-1.07-.74l-.14-.06c-.46-.18-.9-.61-.97-.97s-.49-.84-.92-1.07l-3.09-1.66c-.43-.23-1.05-.41-1.37-.4-.32.01-.9-.22-1.29-.52l-1.89-1.46c-.39-.3-.8-.94-.91-1.42l-.09-.37c-.11-.48-.52-1.12-.91-1.42l-3.76-2.93c-.39-.3-.76-.83-.82-1.18-.06-.35-.35-.8-.63-1.01-.29-.2-.67-.75-.86-1.2l-.15-.38c-.18-.46-.63-1.02-.99-1.25-.36-.23-.87-.39-1.13-.35-.26.04-.87.05-1.36.01l-.33-.02c-.49-.03-1.26.09-1.72.28l-1.08.44c-.46.19-1.17.14-1.6-.11l-5.07-2.97c-.42-.25-1.06-.73-1.41-1.08l-.83-.81c-.35-.34-1.02-.75-1.49-.89l-2.81-.88c-.47-.15-1.07-.61-1.33-1.02l-.29-.45c-.26-.42-.41-1.15-.32-1.64l1.06-6.01c.09-.48.33-1.24.55-1.68l2.22-4.53c.22-.44.67-1.1,1-1.46l3.06-3.31c.33-.36,1.01-.62,1.5-.57,0,0,2.04.19,2.09.26.05.07,1.03.55,1.03.55.44.21,1.19.29,1.67.17l1.89-.49c.48-.12,1.26-.16,1.75-.08l.96.16c.49.08,1.12.47,1.41.86l2.44,3.29c.29.4.84.98,1.22,1.29l1.33,1.12c.38.32.85.94,1.06,1.39l1.4,3.05c.2.45.57,1.04.81,1.32.24.28.5.9.57,1.39l.09.58c.07.49.51,1.02.97,1.2l.73.27c.46.17.98-.03,1.15-.45.17-.42.61-1.04.96-1.38l.67-.64c.35-.34.92-.91,1.26-1.27l3.86-4.03c.34-.36.94-.89,1.34-1.18l5.49-4.08c.4-.29,1.06-.75,1.48-1.01l4.15-2.58c.42-.26,1.14-.59,1.62-.73l4.28-1.3c.47-.14,1.26-.25,1.75-.24l4.45.11c.49.01,1.28.13,1.75.27l3.03.87c.47.14,1.17.5,1.56.81l2.08,1.67c.38.31,1.01.81,1.39,1.13,1.05.86,2.11,1.72,3.16,2.58,1.75,1.43,3.7,1.25,5.75,1.92.86.28,1.64.78,2.25,1.45,1.04,1.15,2.12,2.25,3.23,3.34.35.34.97.86,1.37,1.15,1.22.88,2.2,1.75,3.64,2.28,1.62.6,3.39.93,4.8,1.99.37.28.71.6,1.04.92,1.19,1.14,2.61,1.69,4.09,2.43.44.22,1.13.62,1.54.9l1.4.96c.41.28,1.13.59,1.61.69l1.23.26c.48.1,1.19.44,1.57.75l1.22.99c.38.31,1.1.59,1.59.61l2.24.12c.49.03,1.26.21,1.72.4l1.18.5c.45.19,1.16.57,1.57.84l1.64,1.09c.41.27,1.1.69,1.53.93l2.72,1.49c.85.47,1.38,1.33,2.19,1.85,1.2.78,2.42,1.58,3.67,2.28.43-.78.18-1.76.76-2.43l.52-.6c.32-.37.86-.97,1.19-1.33l.15-.16c.33-.36.66-1.06.73-1.54l.23-1.64c.07-.49.15-1.29.19-1.78l.19-2.74c.03-.49-.07-1.27-.24-1.73l-.46-1.28c-.17-.46-.3-1.24-.29-1.74v-.86c.02-.49-.04-1.21-.12-1.59-.08-.38,0-1.07.18-1.53l1.72-4.43c.18-.46.54-1.18.8-1.59l3.64-5.86c.26-.42.71-1.09,1-1.48l3.79-5.22c.29-.4.8-1.02,1.13-1.39l3.05-3.37c.33-.36.88-.96,1.21-1.31l5.7-6.04c.34-.36.92-.91,1.3-1.22l6.22-5.16c.38-.31,1.01-.81,1.41-1.1l.34-.25c.4-.29.95-.53,1.23-.53s.74-.08,1.02-.19c.29-.1.79-.49,1.12-.86.33-.37.98-.79,1.45-.93l3.69-1.12c.47-.14,1.26-.26,1.75-.26h1.45c.49,0,1.25.18,1.69.4l.93.47c.44.22,1.12.65,1.51.95l.04.03c.39.3,1.09.67,1.56.83l.99.33c.47.16,1.25.25,1.74.21l2.58-.2c.49-.04,1.29-.11,1.78-.16l.38-.04c.49-.05,1.29-.03,1.77.05l1.44.23c.49.08,1.28.2,1.77.28l1.18.18c.31.05.65,0,.96-.03.31-.03.61-.07.92-.12.12-.02.24-.04.36-.06.11-.02.15-.14.16-.24.02-.13.05-.26.08-.39l-1.39-.68c-.44-.22-.87-.77-.97-1.22-.09-.45.03-1.17.26-1.6l.68-1.23c.24-.43.83-.74,1.32-.7l1.55.15c.49.05,1.16.38,1.49.75l1.01,1.11c.33.36,1,.72,1.49.79l.54.08c.49.07,1.28.07,1.77,0l.44-.06c.49-.07,1.24-.32,1.67-.56l.78-.44c.43-.24.95-.8,1.16-1.25.21-.44.6-.87.86-.94.26-.08.75-.37,1.09-.66.34-.29,1-.66,1.46-.83l.11-.04c.46-.17,1.12-.6,1.46-.95l.23-.24c.34-.36.57-.74.52-.86s-.47-.37-.92-.57l-.18-.08c-.45-.2-.79-.75-.76-1.24.04-.49.41-1.09.83-1.34l.03-.02c.42-.25,1.17-.39,1.65-.31l.44.07c.49.08,1.22.03,1.63-.11.41-.14.96-.5,1.22-.78.26-.29.85-.67,1.31-.85l1.15-.46c.46-.18,1.04-.31,1.29-.29.25.02.84-.09,1.31-.24l1.8-.6c.47-.15,1.25-.31,1.74-.34l1.51-.1c.49-.03,1.18.09,1.54.27.35.18.84.31,1.09.27s.63-.42.86-.86l.33-.63c.23-.44.41-1.12.41-1.51v-1.41c0-.38.24-1.01.54-1.4l1.33-1.76c.3-.39.85-.97,1.23-1.28l.02-.02c.38-.31,1.07-.69,1.54-.85l.37-.12c.47-.15,1.24-.39,1.71-.53l1.43-.42c.47-.14,1.18-.5,1.57-.8l.91-.7c.39-.3.84-.83,1.01-1.17.16-.34-.1-.66-.59-.71Z"/>
    <path class="cls-2" d="M880.82,72.46c.43,0,1.01.1,1.3.22.29.12.84.07,1.22-.11l.04-.02c.38-.19.86-.64,1.06-1.02l1.6-3.01c.2-.38.24-.83.09-1.01-.15-.18-.61-.23-1.02-.12l-8.19,2.18c-.41.11-1.03,0-1.37-.26l-5.26-3.9c-.34-.25-.97-.46-1.4-.46h-.14c-.43,0-1.08.17-1.46.37l-1.27.7c-.37.2-.76.71-.86,1.13l-.15.63c-.1.42-.3,1.08-.45,1.48l-1.28,3.32c-.15.4-.45,1.02-.67,1.39l-1.51,2.59c-.21.37-.61.94-.87,1.28l-6.59,8.37c-.26.33-.73.85-1.04,1.15l-1.22,1.16c-.31.29-.5.88-.42,1.3l.13.71c.07.42.05,1-.06,1.28-.11.29-.45.76-.76,1.05l-11.89,11.16c-.31.29-.65.87-.75,1.28,0,0-.08.33-.08.33-.45,1.85.29,4.04,1.54,5.42,1.07,1.17,1.64,1.07,3.07.86.42-.06.96-.4,1.2-.75l.17-.26c.24-.35.48-.99.54-1.41l.73-5.17c.06-.42.37-1,.68-1.29l.24-.22c.32-.29.89-.66,1.28-.83l5.04-2.19c.39-.17.83-.64.97-1.04l1.21-3.36c.14-.4.6-.82,1.01-.94l1.29-.37c.41-.12.81-.55.9-.97l.9-4.39c.09-.42.41-.99.73-1.28l4.65-4.18c.32-.29.81-.78,1.09-1.1l2.01-2.31c.28-.32.85-.63,1.28-.69l4.87-.64c.42-.06,1.07-.28,1.43-.5l.71-.44c.36-.22.89-.67,1.16-1l2.98-3.53c.27-.33.85-.59,1.27-.59h.29Z"/>
    <path class="cls-2" d="M980.17,10.29l-.81-1.37c-.25-.42-.31-1.15-.14-1.61l1.08-2.87c.17-.46-.04-1.03-.47-1.26l-2.6-1.39c-.43-.23-1.18-.35-1.67-.26-1.97.36-4.37.97-5.69,2.64-.99,1.25-1.79,2.73-2.67,4.06-1.45,2.21-2.9,4.42-4.35,6.63-.27.41-.85.93-1.28,1.16l-3.71,1.93c-.44.23-1.19.49-1.67.59l-7.71,1.58c-.48.1-1.24,0-1.68-.22l-.93-.47c-.44-.22-.91-.79-1.05-1.26l-1.8-6.11c-.14-.47-.66-.88-1.15-.91l-.67-.04c-.49-.03-1.18.23-1.53.58l-.52.52c-.35.35-.71,1.03-.81,1.51l-.16.78c-.1.48-.05,1.26.11,1.72l1.29,3.82c.16.47.12,1.21-.08,1.66l-.68,1.5c-.2.45-.76.92-1.23,1.06l-1.71.48c-.47.13-1.16.44-1.53.69-.37.25-.84.81-1.05,1.26l-1.63,3.52c-.21.45-.78.82-1.27.82l-4.77.05c-.49,0-.83.35-.75.76.08.41.15,1.15.15,1.64v2.98c0,.49-.32,1.14-.71,1.44l-8.72,6.73c-.39.3-.81.94-.93,1.41l-.45,1.77c-.12.48-.62.86-1.12.85l-2.46-.04c-.49,0-1.16.12-1.49.28-.33.16-.5.69-.39,1.17l.03.12c.11.48.59,1,1.06,1.16l1.59.54c.47.16.85.69.85,1.18v1.49c0,.49-.28,1.18-.63,1.53l-2.61,2.61c-.35.35-1.01.49-1.47.31l-1.02-.4c-.46-.18-1.09-.21-1.39-.06-.31.14-.43.64-.28,1.11l.03.09c.16.47.1,1.21-.13,1.64l-.14.28c-.23.44-.68.49-1,.12l-.39-.44c-.32-.37-.79-.61-1.04-.52-.25.08-.45.55-.45,1.04v2.53c0,.49-.3,1.17-.66,1.5l-1.36,1.25c-.36.33-.58,1-.48,1.48l.1.48c.1.48.41,1.21.69,1.61l.02.03c.28.4.91.7,1.4.65l.75-.07c.49-.04,1.1-.42,1.35-.84l2.87-4.73c.26-.42.8-.98,1.21-1.25l.44-.29c.41-.27,1.14-.56,1.63-.65l2.41-.43c.48-.09,1.15-.45,1.49-.81l.58-.62c.33-.36.76-1.03.96-1.48l1.99-4.69c.19-.45.66-1.07,1.05-1.38l9.03-7.16c.39-.31.91-.9,1.17-1.31l1.66-2.66c.26-.42.36-1.14.21-1.62-.14-.47-.51-1.07-.82-1.34-.31-.27-.48-.79-.37-1.16.1-.37.49-.94.85-1.26l.68-.6c.37-.33,1.07-.59,1.56-.59h.97c.49,0,1.13.33,1.42.73l1.04,1.45c.29.4.92.71,1.42.7l.52-.02c.49-.02,1.28-.13,1.76-.26l1.85-.5c.47-.13,1.09-.57,1.37-.97l.26-.38c.28-.41.75-1.06,1.05-1.45l4.35-5.66c.3-.39.85-.97,1.22-1.29l3.26-2.79c.37-.32,1.01-.81,1.42-1.08l3.36-2.28c.41-.28,1.12-.63,1.59-.79l5.16-1.74c.47-.16,1.15-.55,1.52-.88l3.8-3.36c.37-.33,1.07-.65,1.55-.73l7.77-1.21c.49-.08,1.01-.52,1.16-.99l.34-1.06c.15-.47.07-1.2-.18-1.62Z"/>
    <path class="cls-2" d="M342.03,642.63c.54-.15,1.15-.23,1.36-.18.21.05.43.7.49,1.46.06.76.36,1.33.67,1.26.31-.06.94-.52,1.4-1.01.33-.36.95-1.74,1.48-1.31.15.12.24.29.34.46.04.07.08.13.13.2.18.26.42.48.73.48.83,0,1.1-1.33,1.1-1.95,0-.94-.51-1.72-.5-2.71,0-.52-.2-1.12-.85-1.16-.49-.03-.9.38-1.3.6-.45.25-.93.38-1.41.54l-2.88.82c-.61.17-1.28.36-1.76.8-.28.25-1.08,1.55-.42,1.8.24.09.88.05,1.41-.1Z"/>
    <path class="cls-2" d="M522.35,449.87l.21-.08c.73-.28,1.64.04,2.03.7.38.67.46,1.81.18,2.54l-.53,1.37c-.28.73-1,1.75-1.59,2.27-.43.37-.96.7-1.34,1.09-.36.38-.82.72-.35,1.24.24.27.62.34.98.4.95.16,1.97-.3,2.91-.45.77-.13,1.9-.65,2.49-1.16l3.36-2.87c.6-.51,1.32-1.53,1.6-2.26,1.08-2.44,1.56-5.24,3.15-7.42,0-.01.02-.02.02-.03.21-.29.42-.65.28-.97-.13-.29-.51-.4-.83-.33-.31.07-.58.26-.86.42-.91.54-1.88.54-2.9.72-.77.14-1.5-.37-1.61-1.13-.11-.76.09-1.95.46-2.65l1.38-2.65c.36-.7.73-1.9.81-2.69l.35-3.27c.03-.32.1-1.25-.21-1.47-.23-.17-.55-.17-.81-.07-.37.13-.63.37-.87.66l-5.99,7.5c-.49.61-1.23,1.66-1.64,2.33-.35.57-.66,1.21-1.05,1.75-.54.76-1.15,1.29-1.2,2.3-.02.34.04.68.06,1.02.03.52.04,1.07-.11,1.54-.15.48-.34.84-.09,1.36.21.43.97.55,1.71.27Z"/>
    <path class="cls-2" d="M466.05,497.22c-.24.15-.82.33-1.29.4-.32.05-.62,0-.93-.11-.14-.05-.27-.12-.42-.13-.15-.01-.31.04-.38.17-.14.25.19.84.31,1.06.26.47.5.93.53,1.03.03.1.19.18.36.18s.46-.23.65-.5c.18-.28.61-.58.94-.68.33-.1.74-.26.9-.35.16-.1.32-.43.37-.75.04-.31-.08-.57-.27-.57s-.54.12-.77.27Z"/>
    <path class="cls-2" d="M300.97,551.15c.14.11.35.08.51,0,.16-.08.29-.21.45-.3.47-.29,1.02-.22,1.54-.34.53-.13.96-.44,1.33-.84.51-.53,1.05-1.19,1.2-1.45.16-.26.14-1.15-.04-1.97l-.16-.76c-.18-.82-.89-1.88-1.58-2.35-.69-.47-1.89-.58-2.66-.25l-2.1.92c-.77.34-1.4,1.3-1.4,2.14v.42c0,1.84,1.88,3.1,2.74,4.55.05.08.1.17.17.22Z"/>
    <path class="cls-2" d="M290.77,556.28c.99.17,1.74-.52,1.66-1.52-.08-1-.8-1.58-1.61-1.29-.81.29-1.55.98-1.66,1.52-.11.54.62,1.13,1.61,1.29Z"/>
    <path class="cls-2" d="M143.13,681.82c0,.21-.01.44.08.63.08.17.25.3.44.33.07.01.13.01.2,0,.67,0,1.25-.38,1.79-.73.6-.38,1.15-.75,1.79-1.07.15-.07.3-.16.36-.31.09-.22-.07-.45-.23-.62-.39-.42-.39-.99-.48-1.55-.12-.74-.84-1.71-1.6-2.17-.76-.45-1.54-.78-1.73-.74-.19.05-.4.38-.46.74-.06.36-.23,1.04-.37,1.52-.33,1.1.05,2.27.17,3.39.02.19.04.38.04.57Z"/>
    <path class="cls-2" d="M146.65,696.73c-.01-.05-.03-.11-.07-.15-.04-.04-.11-.05-.15-.01-.02.02-.03.04-.03.07-.2.75-.69,1.48-1.04,2.18-.1.2-.02.28.18.18.42-.22.82-.49,1.29-.59.09-.02.19-.04.26-.1.11-.1.11-.29.06-.43-.08-.2-.26-.34-.35-.54-.08-.19-.08-.41-.13-.61Z"/>
    <path class="cls-2" d="M132.44,710.45l.05-.06c.4-.46.8-.92,1.2-1.39.19-.22.38-.44.58-.66.16-.19.38-.33.54-.52.15-.18.16-.44.14-.68-.04-.54.12-1.04.3-1.55l.04-.11c.19-.53.66-1.16,1.05-1.39.39-.24.79-.88.88-1.44.13-.83.3-1.64.36-2.48,0-.11,0-.24-.1-.28-.08-.03-.17.03-.24.08-.12.1-.25.2-.37.3-.71.56-1.46,1.08-2.2,1.61-.45.33-1.2.71-1.66.85s-.8.71-.76,1.27l.05.71c.04.56,0,1.47-.08,2.02l-.14.93c-.06.38-.21.74-.39,1.08-.18.33-.31.69-.59.96-.14.13-.3.25-.34.44-.04.18.05.38-.03.54-.07.14-.23.2-.38.22-.15.02-.31.01-.45.07-.06.02-.11.06-.14.11-.03.05-.03.13.02.17.03.03.08.03.12.03.44.02.88.03,1.3-.05.51-.11.89-.39,1.23-.78Z"/>
    <path class="cls-2" d="M117.64,707.55s.04.07.06.09c.03.03.07.04.12.05.16.03.34-.02.47-.12.22-.17.4-.52.5-.77.18-.45,0-.71-.43-.57-.42.14-1.05.25-1.4.25s-.53.16-.41.36c.27.42.84.31,1.08.71Z"/>
    <path class="cls-2" d="M116.71,726.13c.22-.51.74-1.02,1.16-1.12.42-.1,1.06-.53,1.42-.96.41-.48.78-.97,1.28-1.35.11-.09.23-.17.29-.3.05-.1.06-.21.04-.32,0-.03-.01-.07-.03-.1-.04-.05-.12-.06-.18-.07-.86-.06-1.71-.16-2.57-.26-.56-.06-1.01-.57-1.01-1.14,0-1.27-.04-2.52.02-3.79,0-.1,0-.23-.11-.27-.07-.02-.14.02-.18.07-.04.06-.06.13-.07.2-.1.35-.32.65-.46.98l-.97,2.31c-.22.52-.35,1.4-.3,1.95l.34,3.51c.09.89-.11,1.67-.31,2.53-.04.19-.08.39.02.55.02.04.05.07.09.08.09.03.18-.04.24-.11.28-.29.55-.69.7-1.06l.59-1.37Z"/>
    <path class="cls-2" d="M113.44,725.88c-.08-.24-.12-.68-.4-.75-.18-.04-.41.11-.55.2-.23.14-.68.4-.75.69-.07.3.44.52.65.6.36.15.68.28,1.01.5.13.09.26.18.42.19.1.01-.08-.61-.1-.66-.09-.26-.18-.52-.27-.78Z"/>
    <path class="cls-2" d="M130.12,647.16c-.17-.34-.64-.06-.88-.25-.19-.15-.15-.61-.12-.83.07-.53.49-1.55.94-2.26.51-.81,1.03-1.61,1.54-2.42.51-.8,1.28-1.69,1.69-2.61.06-.14.11-.28.16-.42.22-.73.44-1.52.17-2.23-.31-.8-.22-1.65.16-2.46l.07-.15c.36-.76.22-1.75-.32-2.19-.53-.45-1.47-.34-2.08.24l-.86.81c-.61.58-1.57,1.18-2.12,1.33-.56.16-1.25.93-1.53,1.72l-.42,1.17c-.19.52-.33,1.22-.08,1.74.13.28.32.53.43.82.18.51-.01,1.15-.11,1.67l-.46,2.34c-.27,1.39-.86,2.94-1.66,4.1-.02.03-.04.05-.05.08-.09.13-.18.26-.21.41-.04.15,0,.33.12.43.1.08.23.09.36.09.52,0,.98-.21,1.49-.21.84,0,1.58.69,1.64,1.53l.03.43c.06.84-.19,1.65-.54,1.81-.75.33-1.08-.51-1.52-.87-.27-.22-.67-.34-.96-.15-.1.07-.18.17-.26.27-.27.35-.63,1.04-1.15,1.04-.6,0-.97-.82-1.11-1.3-.03-.12-.09-.27-.22-.26-.13,0-.18.18-.19.31-.06.57-.31,1.1-.43,1.65-.07.34-.15.68-.23,1.02-.19.82-.38,2.18-.44,3.02l-.28,4.16c-.06.84.56,1.34,1.37,1.12l2.07-.57c.81-.22,1.56-1.09,1.66-1.92l.03-.21c.1-.83.44-2.16.75-2.94l.41-1.04c.31-.78,1.02-1.84,1.57-2.35.56-.51,1.09-1.61,1.18-2.45.11-1,.33-1.98.41-2.98,0-.09.01-.18-.03-.26Z"/>
    <path class="cls-2" d="M108.28,730.35c-.3-.11-.56-.27-.85-.39-.21-.09-.44,0-.51.22-.21.58-.34,1.43-.78,1.87-.07.07-.15.13-.19.22s-.06.2.01.27c.05.05.13.07.2.08.36.04.73-.03,1.06.1.17.07.33.18.51.16.57-.06.82-1.42.87-1.96,0-.03,0-.07,0-.09,0-.11,0-.24-.06-.33-.06-.08-.16-.12-.26-.15Z"/>
    <path class="cls-2" d="M106.87,738.17c-.42-.38-.76-1.14-.76-1.7v-1.07c0-.77-.6-1.28-1-1.88-.04-.06-.08-.12-.12-.19-.1-.19-.21-.39-.4-.49-.2-.11-.46-.07-.66.03-.21.1-.38.25-.57.39-.79.56-1.78.87-2.67,1.26-.76.34-1.59.27-2.3-.17-.16-.1-.3-.21-.48-.27-.17-.06-.38-.04-.51.09-.14.14-.13.37-.11.57.04.44.08.88.12,1.33.06.6.21.98.56,1.46.32.43.42,1.21.23,1.74l-.47,1.32c-.19.53.05,1.05.54,1.16.48.11,1.28.42,1.78.68l.9.47c.5.26,1.29.24,1.77-.06l.15-.09c.48-.29.72-.96.53-1.49l-.27-.78c-.19-.53.12-.9.67-.82l3.11.45c.55.08,1.08-.04,1.18-.26.09-.22-.17-.71-.59-1.09l-.65-.59Z"/>
    <path class="cls-2" d="M163.91,758.03l.1-.44c.12-.55.66-1.12,1.2-1.28l.34-.1c.54-.16,1.09-.73,1.24-1.27.2-.75.27-1.64.7-2.28.07-.1.18-.22.29-.16.25.12-.05.56.08.76.1.13.31.12.44.02.13-.09.22-.24.33-.36.56-.62,1.53-.94,2.34-.84.45.05.87.14,1.3.29.54.2,1.12.36,1.7.28,1.18-.15,1.49-1.33,1.91-2.26.34-.75.68-1.49,1.02-2.24.23-.51.03-1.14-.45-1.4-.48-.26-1.3-.3-1.82-.09l-7.29,2.95c-.52.21-1.03-.07-1.14-.62l-.22-1.17c-.09-.48-.14-.98-.17-1.47-.02-.35.03-1.06-.19-1.33-.09-.11-.24-.17-.39-.18-.15,0-.29.03-.43.07-.43.14-.81.37-1.24.52-.44.15-.88.3-1.32.45-.52.18-1.04.36-1.56.54-.53.18-1.13.76-1.33,1.28-.33.84-.65,1.67-.98,2.51-.26.68-.53,1.36-.79,2.04-.25.64-.43,1.37-.75,1.98-.06.11-.12.21-.19.31-.18.27-.42.53-.43.86,0,.36.29.64.47.96.27.45.25.9.25,1.39l-.38,2.57c-.13.89.1,1.96.76,2.6.16.15.35.29.57.32.18.02.35-.02.52-.09.64-.28,1.06-.87,1.59-1.31.33-.28.69-.53,1.04-.79.62-.47,1.23-.93,1.85-1.4.45-.34.91-1.06,1.03-1.61Z"/>
    <path class="cls-2" d="M152.18,783.21c.39-.19.8-.34,1.19-.51.07-.03.14-.06.21-.09.05-.02.11-.06.11-.12,0-.07-.09-.11-.16-.12-.65-.14-1.31-.39-1.95-.59-.54-.16-.93-.07-.88.2.06.27.26.73.45,1.02.19.29.65.39,1.02.21Z"/>
    <path class="cls-2" d="M143.61,792.16c.04.05.08.1.14.14.21.15.52.05.69-.15.35-.39.59-1.03.85-1.49.18-.32.36-.63.54-.95.28-.49.68-1.23.89-1.65.21-.42-.07-.68-.62-.58l-.82.15c-.55.1-1.2.6-1.44,1.11l-.79,1.66c-.25.53-.04.98.29,1.4l.28.35Z"/>
    <path class="cls-2" d="M257.35,670.49c-.41-.2-1.2-.27-1.74-.14l-.65.15c-.55.12-1.03.55-1.07.94-.04.39.11,1.13.34,1.64.17.38.28.69.35,1.1.03.18.07.37.19.5.12.14.31.2.49.2.18,0,.36-.05.54-.09,1.02-.28,2.04-.49,3.08-.68.55-.1,1.39-.42,1.7.27.04.09.06.19.12.27.06.08.17.14.26.09.04-.02.06-.05.09-.09.31-.4.62-.71.99-1.05l2-1.84c.19-.17.53-.5.3-.77-.2-.25-.74-.04-.99.04-.93.29-1.83.56-2.71.97-.36.17-.74.31-1.13.29-.6-.02-.75-.33-1-.78-.23-.41-.76-.82-1.17-1.02Z"/>
    <path class="cls-2" d="M258.94,655.89l1.58-1.32c.24-.2.2-.45-.09-.57l-1.1-.43c-.29-.11-.55.04-.58.35l-.18,1.77c-.03.31.14.4.37.2Z"/>
    <path class="cls-2" d="M266.64,655.23c.07-.39.04-.83.05-1.22.03-.64-.69-.55-1.09-.7-.21-.08-.43-.22-.64-.13-.11.05-.18.16-.22.28-.09.34-.1.75-.16,1.11-.05.28-.25.66-.45.86l-.58.57c-.2.2-.43.49-.51.65-.08.16.07.37.33.47l1.13.42c.26.1.47.41.45.69-.04.71-.04,1.39-.03,2.1,0,.09.01.2.09.26.06.04.14.03.22.02.55-.11,1.51-.59,1.41-1.28-.07-.55-.14-1.1-.22-1.64-.06-.41-.16-.77-.1-1.18.07-.43.23-.84.31-1.26Z"/>
    <path class="cls-2" d="M277.62,658.89c.61.2,1.17.37,1.75.64.07.03.15.07.22.08.17.03.34-.02.49-.11.42-.25.8-.58,1.23-.83.26-.16.23-.31-.07-.35-.72-.08-1.45-.16-2.17-.25-.59-.07-1.18-.13-1.77-.2-.56-.06-1.19-.23-1.75-.2-.13,0-.3.07-.29.2,0,.06.04.1.08.14.25.26.68.34,1.02.45.42.14.85.28,1.27.42Z"/>
    <path class="cls-2" d="M284.72,656.79c.23.07.67.35.89.32.1-.01.17-.09.22-.18.37-.75.64-1.59.96-2.37.11-.26,0-.36-.25-.22-.99.56-1.97,1.2-3.01,1.64-.07.03-.14.06-.17.13-.03.07,0,.15.07.2.06.05.13.07.21.09.38.1.73.27,1.1.39Z"/>
    <path class="cls-2" d="M287.8,657.47c.09.68,1.92.07,2.27-.02.66-.15,1.67-.17,2.1-.79.33-.5-.28-1.61-.44-2.11-.14-.42-.28-.85-.42-1.27-.09-.27-.37-.38-.61-.25l-1.54.81c-.25.13-.42.46-.38.74l.16,1.13c.05.35-.15.74-.36,1.01-.19.23-.81.4-.77.75Z"/>
    <path class="cls-2" d="M294.42,653.96c1.1-.3,2.31-.63,3.24-1.32.36-.27.51-.6.72-1,.13-.25.16-.67.07-.93l-.04-.12c-.09-.26-.38-.57-.64-.68l-.17-.07c-.26-.11-.66-.08-.9.07l-1.69,1.03c-.24.15-.6.43-.8.63l-.14.14c-.2.2-.44.58-.53.84l-.1.29c-.09.26-.02.66.17.88.18.21.55.33.82.25Z"/>
    <path class="cls-2" d="M377.19,636.59l-3.23,3.19c-.4.39-1.1.98-1.56,1.31l-1.63,1.16c-.46.33-1.04,1-1.3,1.49-.52,1-1.05,2-1.57,3-.36.68-.71,1.36-1.07,2.04-.45.86-.93,1.23-1.73,1.82-.22.16-.45.33-.61.55-.17.22-.27.5-.22.77.07.34.38.6.71.71.33.11.69.12,1.03.14,1.66.12.11,1.83-.36,2.43-.35.44-.2.96.33,1.15l2.07.76c.53.19,1.32.07,1.77-.26l.39-.3c.45-.34,1.24-.78,1.76-.99l2.85-1.14c.52-.21.75-.79.52-1.3l-.79-1.7c-.24-.51-.4-1.38-.37-1.94l.19-3.03c.03-.56.29-1.42.57-1.9l3.42-6.01c.28-.49.29-1.28.03-1.77-.26-.49-.8-.56-1.2-.17Z"/>
    <path class="cls-2" d="M573.01,625.94c-.46-.28-.75-.49-1.32-.42-1.21.16-.72,2.72-.72,3.61,0,.62.48,1.31,1.06,1.53l.88.34c.58.22,1.06-.11,1.06-.73v-2.6c0-.62-.43-1.4-.96-1.73Z"/>
    <path class="cls-2" d="M566.73,645.65l-.05.03c-.57.35-.87,1.24-.65,1.98l.28.96c.22.74.53.72.69-.04l.47-2.19c.16-.76-.17-1.09-.75-.74Z"/>
    <path class="cls-2" d="M204.29,835.74c-.27-.16-.63-.08-.87.12s-.4.48-.55.75c-.88,1.62-1.65,3.33-2.62,4.91-.41.66-.74,1.83-.74,2.6v1.41c0,.77-.37,1.92-.81,2.55l-2.6,3.66c-.45.63-.92,1.77-1.06,2.53l-.47,2.61c-.14.76.35,1.17,1.08.91.49-.17.98-.35,1.47-.52.74-.26,1.51-.34,2.13-.87.33-.28.58-.67.6-1.1,0-.15-.01-.31-.03-.46-.16-1.18-.03-2.3.56-3.38l1.16-2.14c.37-.68,1.09-1.7,1.61-2.28l.03-.03c.52-.57,1.05-1.66,1.17-2.43l.51-3.18c.26-1.64.21-3.27-.14-4.89-.06-.3-.16-.63-.42-.78Z"/>
    <path class="cls-2" d="M186.04,856.96c-1.11-.23-2.25-.93-3.29-1.38-1.15-.5-2.29-1.03-3.36-1.68-.44-.27-.99-.47-1.46-.25-.08.04-.16.09-.22.16-.06.08-.08.17-.11.26-.46,1.4-1.88,2.12-3.25,2.34-.14.02-.3.05-.39.16-.13.16-.05.39.04.58.89,1.93,1.39,4.06,2,6.1.21.7.98,1.27,1.71,1.27h2.58c.73,0,1.88-.21,2.57-.46l.27-.1c.68-.25,1.64-.87,2.11-1.37.48-.5.95-1.5,1.05-2.22.08-.59.17-1.14.32-1.7.02-.08.04-.15.06-.23.06-.22.13-.45.15-.68.01-.18,0-.38-.12-.53-.15-.19-.42-.23-.66-.28Z"/>
    <path class="cls-2" d="M165.95,852.12l-.53-.11c-.71-.15-1.08.19-.83.74.26.56,1.06,1.11,1.78,1.23.32.05.69.06,1.01.17.06.02.12.04.17.07.16.07.32.16.49.15.17,0,.35-.15.33-.33-.01-.09-.07-.16-.13-.22-.67-.77-1.24-1.47-2.3-1.7Z"/>
    <path class="cls-2" d="M175.79,940.78l-.96.26c-.54.14-1.3.59-1.69,1,0,0-2.46,2.58-2.5,2.63-.86.91,1.43.84,1.87,1.04.23.11.46.26.72.26.24,0,.45-.15.6-.33.27-.33.69-.77.88-1.14l1.6-3.08c.26-.5.03-.79-.51-.64Z"/>
    <path class="cls-2" d="M158.63,932.77c-.29-.13-.68.34-.85,1.04l-.13.52c-.18.71-.89,1.47-1.58,1.7l-.67.22c-.61.2-1.45.26-1.97-.2-.19-.17-.37-.41-.62-.39-.11,0-.21.07-.3.13-.9.59-2.41,1.5-2.86,2.53-.19.42-.71,1.09-1.16,1.49-.6.52-1.3.69-2.08.68-.73,0-1.47-.06-2.2-.15-.19-.02-.39-.05-.57.02-.49.18-.67.79-1.07,1.09-.27.2-.6.26-.92.34-.61.17-1.22.33-1.83.49-.7.19-1.75.7-2.33,1.15,0,0-1.93,1.47-1.95,1.48-.67.51-1.02,1.21-.07,1.56.15.06.31.14.36.29.11.37-.54.38-.73.4-1.2.13-2.37.18-3.58.18-.08,0-.16,0-.22.05-.11.08-.11.25-.09.38.05.36.11.73.27,1.05.16.33.45.61.81.67.09.01.18.01.27.02,1.06,0,2.06.03,3.12-.06,1.18-.1,1.12.92,1.18,1.75.03.35.06.72.26,1,.28.42.83.57,1.19.92.34.33.49.83.83,1.16.32.32.77.48,1.1.8.39.37.6.77,1.23.77.41,0,.54-.53.29-1.18-.25-.65-.08-1.64.39-2.2l1.98-2.4c.24-.29.5-.64.62-.99.12-.35.03-.65.09-1.01.11-.66,1.02-.92,1.5-1.26.62-.43,1.31-.82,2.03-1.03.65-.19,1.53-.28,2.1-.63.23-.14.42-.37.47-.63.04-.21-.02-.42-.04-.63-.11-1.03,1-1.65,1.63-2.32.49-.53.99-1.05,1.48-1.58.5-.53,1.48-1.14,2.17-1.35l2.19-.67c.7-.21,1.2-.98,1.13-1.71l-.2-1.9c-.08-.72-.38-1.43-.67-1.56Z"/>
    <path class="cls-2" d="M137.93,956.16c-.97-.46-1.87-1-2.78-1.55-.53-.32-1.11-.39-1.66-.64-.17-.08-.36-.15-.55-.13-.19.02-.38.18-.36.37,0,.14.14.39.3.66.19.32.43.66.52.85.19.4.38.79.57,1.19.24.5.88.78,1.42.61.73-.24,1.46-.52,2.21-.63.15-.02.31-.05.44-.14.12-.09.2-.27.12-.4-.05-.09-.14-.13-.23-.18Z"/>
    <path class="cls-2" d="M121.19,974.38c-.44-.35-.83-1.1-.87-1.65-.04-.6-.1-1.14-.33-1.58-.19-.35-.49-.63-.98-.84-.81-.33-2.6-.6-2.63.72-.04,1.37-.07,2.74-.11,4.11-.04,1.71-.62,4.45.71,5.78.35.35.78.59,1.14.93.28.26.52.58.84.78.41.26.93.32,1.42.24.77-.12,1.6-.45,1.86-1.25l1.35-4.08c.18-.53-.04-1.25-.47-1.61l-1.93-1.55Z"/>
    <path class="cls-2" d="M104.24,998.28c-.83.14-1.66.27-2.49.41-1.03.17-3.11.15-3.87.95-.81.86-.38,3.63,1.2,3.25l.69-.16c.55-.13,1.32-.56,1.72-.95l3.02-2.95c.4-.39.28-.64-.28-.55Z"/>
    <path class="cls-2" d="M85.82,1036.01l-.04-.06c-.1-.13-.18-.36-.19-.52l-.1-1.48c-.02-.35-.4-.56-.53-.86-.05-.11-.07-.22-.1-.33-.03-.11-.07-.22-.15-.31-.21-.22-.55,0-.74-.31l-.17-.3c-.08-.14-.27-.28-.43-.31l-.11-.03c-.15-.03-.36-.17-.45-.3l-.34-.48c-.09-.13-.25-.14-.36-.03l-.45.47c-.11.12-.14.32-.06.46l.34.62c.08.14.09.37.03.52l-.81,2.04c-.06.15-.19.36-.3.48l-4.01,4.49c-.11.12-.31.26-.46.32l-1.12.45c-.15.06-.32.23-.39.37l-.34.72c-.07.14-.05.36.05.49l.51.68c.1.13.04.23-.12.23h-.51c-.16,0-.39.07-.51.18l-.52.45c-.12.1-.34.23-.5.27,0,0-1.82.53-1.86.55-.04.01-.72.49-.72.49-.13.09-.34.09-.48,0l-1.69-1.11c-.13-.09-.17-.27-.08-.4.29-.43.73-.91.88-1.4.2-.64-.57-.83-1.02-1.04-.34-.16-.69-.33-1.03-.49-.14-.07-.39-.1-.55-.07l-2.07.36c-.16.03-.4-.01-.54-.09l-.92-.51c-.14-.08-.27-.01-.29.15l-.15,1.05c-.02.16.07.36.19.45l.23.16c.13.09.24.3.25.46l.03.52c0,.16-.05.4-.12.54l-.23.44c-.07.14-.07.37,0,.51l.89,1.74c.07.14.26.26.42.25h1.55c.16-.01.41.04.55.11l1.5.71c.14.07.28.25.3.41.02.16-.02.4-.1.54-.13.26-.26.52-.4.77-.08.16-.17.33-.25.49-.1.2-.2.31-.45.3-.15,0-.3-.04-.44,0-.23.06-.37.3-.58.4-.16.07-.35.08-.45.23-.06.1-.12.21-.19.32-.12.17-.23.35-.35.52-.09.13-.27.19-.4.14s-.35-.02-.48.07l-.69.49c-.13.09-.36.15-.52.13l-.47-.06c-.16-.02-.4.02-.54.1l-.47.26c-.14.08-.29.27-.33.42l-.16.54c-.04.15-.18.35-.31.45l-1.38,1.02c-.13.09-.27.3-.31.45l-.05.17c-.04.15-.2.33-.35.39l-.61.25c-.15.06-.38.05-.52-.02l-.18-.09c-.14-.07-.33-.02-.41.11l-.05.08c-.08.13-.28.29-.42.34l-.87.31c-.15.05-.34-.01-.43-.14l-.22-.32c-.09-.13-.24-.19-.33-.13-.09.06-.18.24-.21.39l-.13.88c-.02.16.02.4.09.54l1.28,2.6c.07.14.15.39.18.54l.59,2.95c.03.16-.05.36-.18.45l-1.45,1.03c-.13.09-.34.19-.48.21-.13.02-.33.11-.44.19-.11.08-.27.26-.36.39l-1.1,1.7c-.09.13-.27.3-.41.38l-.92.5c-.14.08-.33.24-.42.37l-.31.44c-.09.13-.12.36-.07.51l.25.71c.05.15.18.28.28.29.1,0,.22.14.26.29l.04.14c.02.08.04.17.03.25,0,.1-.05.17-.09.26-.05.13-.03.29.08.37.06.04.14.05.21.09.26.15.07.51,0,.71-.05.15-.01.37.08.5l.11.13c.1.12.16.35.13.51l-.36,1.89c-.03.16.07.33.21.39l.56.22c.15.06.37.03.5-.07l.61-.46c.13-.1.36-.17.52-.17h.66c.16,0,.37-.1.46-.23l1-1.35c.09-.13.3-.27.45-.32l1.63-.49c.15-.05.35-.19.44-.32l.53-.79c.09-.13.28-.29.43-.35l.78-.34c.15-.06.22-.24.17-.39l-.3-.91c-.05-.15-.22-.24-.37-.19l-.84.25c-.15.05-.35.19-.44.32l-.15.23c-.09.13-.23.13-.31,0l-.61-1.02c-.08-.14-.17-.38-.2-.53l-.03-.19c-.03-.16.05-.37.16-.48l.82-.75c.12-.11.18-.32.14-.47-.04-.15-.03-.4,0-.56l.31-1.06c.04-.15.18-.36.31-.45l.62-.48c.13-.1.22-.3.21-.46l-.07-.96c-.01-.16.09-.35.24-.42l.53-.27c.25-.13.3-.41.29-.65,0-.07.02-.14.08-.18.03-.01.05-.02.08-.02.08,0,.15,0,.23.01.28.05.51.11.79.02l.38-.13c.15-.05.36,0,.47.11.36.37.7.76,1.1,1.08.24.19.51.4.82.37.09,0,.18-.04.23-.11.06-.07.07-.18.06-.27-.02-.47-.22-.95-.59-1.24-.02-.02-1.01-.77-1.01-.77-.13-.1-.28-.29-.35-.44l-.24-.53c-.06-.14-.05-.37.04-.51l.09-.15c.08-.13.08-.35,0-.49l-.08-.12c-.08-.13-.25-.33-.38-.43l-1.29-1.04c-.12-.1-.27-.3-.32-.45l-.26-.76c-.05-.15.04-.26.19-.24h.07c.16.03.35-.07.42-.21l.36-.67c.07-.14.26-.27.42-.28l1.14-.1c.16-.01.41.03.55.1l1.32.61c.14.07.39.11.55.09l.62-.06c.16-.02.31-.16.33-.31l.17-1.21c.02-.16.17-.25.32-.21l.23.06c.15.04.4.02.54-.05l1.38-.66c.14-.07.21-.24.15-.39l-.14-.34c-.06-.15-.03-.36.08-.48l.49-.56c.1-.12.32-.21.48-.19l.62.05c.16.01.4-.05.53-.14l.42-.28c.13-.09.18-.28.12-.42l-.46-.96c-.07-.14,0-.26.16-.26h1.25c.16.01.4.08.53.17l.6.4c.13.09.33.06.43-.06l.37-.43c.1-.12.32-.23.47-.25l1.06-.1c.16-.02.33-.15.39-.3l.16-.4c.06-.15.04-.38-.03-.52l-.76-1.4c-.08-.14,0-.23.15-.21l.8.12c.16.02.29-.09.29-.24v-1.22c0-.16.13-.26.28-.22l.92.22c.15.04.41.05.57.03l2.36-.32c.16-.02.37-.13.48-.25l.44-.48c.11-.12.23-.34.27-.49l.04-.17c.04-.15.18-.36.3-.45l.85-.65c.13-.1.24-.3.25-.46l.05-.73c.01-.16.14-.32.3-.37l.09-.03c.15-.04.29-.21.3-.37l.04-.49c.01-.16.12-.38.23-.49l1.21-1.25c.11-.11.2-.34.19-.5l-.04-1.18c0-.16-.09-.39-.18-.52Z"/>
    <path class="cls-2" d="M68.19,1059.37l-.28.06c-.14.03-.3.16-.36.28l-.36.75c-.06.12-.22.25-.36.27l-.69.13c-.14.03-.23.16-.21.3.03.2,0,.54.23.62.15.06.33.08.49.09.14.01.34-.05.44-.14.52-.45,1.08-.85,1.42-1.46.15-.26.07-.45-.01-.72-.04-.13-.19-.22-.32-.18Z"/>
    <path class="cls-2" d="M55.93,1039.98c.08.11.27.21.4.21.52.02,1.11.11,1.62-.02.11-.03.23-.07.34-.08.21-.02.42.05.63.1.2.05.38.04.58,0,.14-.03.29-.16.35-.29l.06-.14c.05-.13.01-.3-.1-.39l-.87-.7c-.11-.09-.3-.12-.43-.07l-.41.16c-.13.05-.35.08-.48.06l-1.22-.16c-.14-.02-.29.07-.35.2l-.25.61c-.05.13-.03.32.06.44l.06.08Z"/>
    <path class="cls-2" d="M66.77,1020.98c.12,0,.24-.08.34-.11.38-.12.77-.23,1.16-.29.38-.06.69-.34.69-.62,0-.28.06-.63.14-.77.08-.15.12-.34.15-.51.03-.16.14-.43-.01-.55-.2-.15-.48.17-.61.31,0,0-1.9,2.02-1.9,2.02-.11.12-.3.29-.14.45.05.05.12.07.18.06Z"/>
    <path class="cls-2" d="M92.03,1018.1c-.22-.68-.83-.84-1.35-.36l-.38.35c-.52.48-.46,1.18.15,1.55l.08.05c.61.37,1.32.54,1.58.38.26-.16.29-.85.07-1.53l-.14-.45Z"/>
    <path class="cls-2" d="M5.2,1059.65c-.39-.4-1.12-.51-1.61-.25l-1.72.92c-.49.27-.49.7,0,.96.53.28,1.07.56,1.6.84.81.43,1.6,1.02,2.56.88.29-.04.4-.13.49-.41l.07-.22c.17-.53,0-1.3-.4-1.7l-1.01-1.03Z"/>
    <path class="cls-2" d="M336.78,643.29c.46.25,1.1.14,1.44-.25.34-.39.29-.87-.1-1.07s-1.12-.23-1.61-.09l-.57.17c-.5.15-.53.48-.08.73l.92.51Z"/>
    <path class="cls-2" d="M322.25,648.08l.3-.07c.49-.12.89-.43.89-.69s-.36-.48-.81-.49c-.44,0-.91.32-1.04.73-.13.41.17.65.66.53Z"/>
    <path class="cls-2" d="M319.15,649.34c.45-.04.81-.45.81-.9v-.17c0-.45-.36-.74-.8-.64l-.48.1c-.44.09-.84.53-.89.96-.05.43.27.75.72.71l.64-.06Z"/>
    <path class="cls-2" d="M313.07,648.4c.19-.18.14-.68-.1-1.11l-.29-.52c-.24-.43-.62-.47-.85-.09-.23.38-.13.98.21,1.33l.07.07c.34.35.77.5.96.32Z"/>
    <path class="cls-2" d="M689.04,363.16c.64-.71,1.01-1.72.83-2.26-.19-.54-.53-1.25-.76-1.59-.23-.34-.47-1.28-.53-2.09-.02-.3.03-1.38-.48-1.31-.42.06-.8.74-1.03,1.04l-.12.16c-.22.29-.65,1.05-1.1.94-.3-.08-.06-.78,0-.98.14-.59.32-1.41.41-1.83.09-.42.2-1.53.25-2.49l.1-1.77c.05-.95.18-2.5.29-3.45l.02-.21c.11-.95-.12-2.35-.5-3.12-.38-.77-.95-2.14-1.27-3.04v-.04c-.33-.9-.6-2.41-.6-3.37v-.91c-.01-.95-.53-2.17-1.15-2.69s-1.62-1.57-2.21-2.32l-.22-.27c-.59-.75-1.12-1.75-1.18-2.23-.06-.48.28-1.27.76-1.76.36-.38.99-.93.57-1.46-.3-.37-.79-.56-1.2-.79-.74-.42-1.27-1.16-1.18-1.65.09-.49.32-1.27.52-1.72.2-.45.05-1.34-.33-1.98-.38-.64-.93-1.58-1.21-2.08s-.53-1.3-.54-1.76c0-.47-.43-1.51-.93-2.32l-.53-.84c-.27-.43-.65-1-1.04-1.55-.33-.47-.67-.94-.94-1.29l-.94-1.22c-.71-.92-1.31-1.87-2.28-2.54-.09-.06-.18-.12-.26-.19-.4-.32-.66-.84-.97-1.24-.23-.3-.57-.83-.97-.9-.41-.07-.8.19-1.15.37-.46.23-1.26-.23-1.77-1.03l-1.15-1.78c-.52-.8-1.18-2.2-1.48-3.1l-.69-2.09c-.3-.91-.61-2.42-.7-3.37l-.38-4.14c-.09-.95-.24-2.5-.33-3.45l-.38-3.73c-.06-.63-.13-1.29-.07-1.93.05-.52.34-.92.09-1.45-.32-.66-.21-1.61-.19-2.35l.06-3.12c.02-.95.08-2.51.14-3.46l.2-3.38c.06-.95.34-2.47.62-3.38l1.08-3.46c.28-.91.72-2.31.97-3.1s.51-1.89.57-2.43c.06-.54.01-1.07-.11-1.18-.12-.11-.3-.17-.4-.12-.1.05-.77.6-1.49,1.23l-1.62,1.41c-.72.63-2.08,1.24-3.02,1.37l-.58.08c-.94.13-2.38-.18-3.18-.69l-.43-.27c-.81-.51-1.81-1.52-2.23-2.25-.42-.73-1-1.45-1.3-1.6s-1.01-.81-1.57-1.47c-.57-.66-1.69-1.19-2.5-1.19s-2.07-.49-2.82-1.09c-.82-.66-1.57-1.39-2.37-2.08-.1-.08-.2-.17-.32-.2-.22-.06-.47.05-.62.23-.24.28-.38.78-.54,1.11l-2.62,5.45c-.41.86-.91,2.33-1.09,3.26l-1.7,8.44c-.19.93-.2,2.38-.02,3.22.18.84.62,1.52.98,1.52s.94-.22,1.3-.49c.36-.27,1.14-.54,1.74-.6.6-.06,1.38-.3,1.74-.54.36-.24.99-.51,1.41-.6.42-.09,1.03-.33,1.36-.54s1.35-.28,2.28-.16c.93.12,2.28-.29,3-.91l1.7-1.45c.73-.62,1.59-1.56,1.92-2.1.33-.54,1.14-.41,1.8.27l.1.1c.66.69,1.42,2,1.7,2.91l.74,2.44c.28.91.33,2.42.12,3.35l-1.84,8.13c-.21.93-.96,2.21-1.67,2.85l-2.74,2.46c-.71.64-1.74.52-2.29-.26l-.07-.1c-.55-.78-1.68-1.69-2.52-2.01-.84-.33-1.81-1.31-2.17-2.17-.36-.87-1.16-1.7-1.79-1.85s-1.38-.22-1.68-.16c-.3.06-.79.67-1.09,1.36-.3.69-.42,1.79-.27,2.44.15.66-.15,1.85-.66,2.66l-.97,1.52c-.51.8-1.27,1.56-1.69,1.68-.42.12-1.43-.18-2.25-.67l-1.04-.62c-.82-.49-1.65-1.65-1.86-2.58l-1.87-8.66c-.2-.93-.29-2.47-.19-3.42l.31-3.07c.09-.95-.48-2.14-1.29-2.66l-.99-.63c-.8-.51-2.09-.47-2.85.1l-.58.43c-.77.57-2.04.6-2.83.06-.94-.64-2.35-1.29-2.99-2.25-.11-.17-.25-.38-.45-.35-.19.02-.27.24-.32.42-.54,1.91-1.18,3.76-1.83,5.64-.23.65-.47,1.56-.38,2.25.1.79.42,1.51.42,2.31l-.14,5.76c-.02.95-.21,2.49-.43,3.42l-.96,4.22c-.21.93-.68,2.06-1.04,2.5-.36.45-1.07.81-1.57.81s-1.5.53-2.2,1.18l-.28.26c-.7.65-1.86.81-2.58.36-.72-.45-1.94-.37-2.72.18l-.74.52c-.78.54-1.9,1.61-2.48,2.36l-3.32,4.31c-.58.76-.64,1.57-.13,1.81.51.24,1.2,1.16,1.54,2.06l.62,1.64c.34.89.75,2.39.92,3.33l.47,2.56c.09.48.25.99.44,1.43.18.41.39.75.57.93.39.36.86,1.42,1.05,2.35l.51,2.57c.19.93.11,2.44-.17,3.35l-2.99,9.61c-.28.91-1.03,2.24-1.66,2.96l-2.28,2.6c-.63.72-1.46,1.4-1.85,1.52-.39.12-1.4-.13-2.26-.56l-1.68-.84c-.85-.43-1.41,0-1.24.93l.35,1.91c.17.94.73,2.19,1.24,2.79,2.15,2.53,4.46-1.44,6.86-.96l.94.19c.93.19,2.23.91,2.88,1.61l.78.84c.65.7,1.4,2.01,1.67,2.93l1.09,3.73c.27.91.4,2.44.3,3.39l-1.69,15.55c-.1.95-.64,2.36-1.2,3.13l-1.88,2.62c-.56.77-1.4,1.97-1.88,2.65-.48.69-.98,2.02-1.11,2.96l-1,7-.03.21c-.13.94-.49,2.46-.79,3.36l-4.13,12.56c-.3.91-1.09,2.2-1.75,2.88l-2.68,2.74c-.67.68-1.54,1.94-1.95,2.81l-2.86,6.12-2.62,5.61c-.4.86-.83,2.34-.95,3.29l-.97,7.53c-.12.95-.55,2.43-.95,3.29l-2.46,5.32c-.4.87-1.36,2.03-2.13,2.59l-5.77,4.16c-.77.56-2.1,1.37-2.95,1.8l-3.53,1.8c-.85.43-2.22,1.18-3.04,1.66l-3.52,2.05c-.82.48-1.86,1.56-2.31,2.4l-1.62,3.03c-.45.84-1.03,2.28-1.28,3.2l-1.9,6.87c-.25.92-1.05,2.18-1.78,2.8l-2.04,1.76c-.72.62-1.83,1.71-2.46,2.43l-8.24,9.34c-.63.71-1.79,1.74-2.57,2.28l-4.86,3.35c-.78.54-2.15.92-3.03.83-.88-.08-1.9-.33-2.25-.55-.36-.22-.81-.38-1.02-.37-.2.02-.83.65-1.4,1.42l-.36.49c-.57.77-1.7,1.79-2.52,2.29l-3.4,2.05c-.82.49-2.22,1.15-3.12,1.46l-7.01,2.4h0l-6.47,2.22c-.9.31-2.33.93-3.17,1.37l-.77.41c-.84.45-1.74,1.56-2,2.48l-.51,1.81c-.26.92-.95,2.28-1.54,3.03l-.12.16c-.59.75-1.85,1.44-2.8,1.55l-3.14.34c-.95.1-2.15,0-2.68-.23-.53-.23-1.58-.39-2.34-.36-.76.03-1.85-.56-2.43-1.32l-2.45-3.23c-.58-.76-.59-2.01-.03-2.78l1.08-1.5c.56-.77,1.01-2.18,1.01-3.14v-3.84c0-.95-.7-1.38-1.55-.96l-1.11.55c-.85.43-1.65.39-1.78-.08-.13-.47-.7-1.18-1.27-1.57-.57-.39-1.08-1.09-1.14-1.55-.05-.46-.24-1.05-.41-1.31-.17-.26.06-1.16.51-2l.05-.09c.46-.84.96-1.78,1.11-2.09.16-.31.93-.13,1.71.41l.84.57c.79.54,1.97.42,2.63-.27l.19-.19c.66-.69,1.64-1.89,2.17-2.69l.03-.05c.53-.79,1.42-1.62,1.98-1.84.56-.22,1.5-.36,2.09-.31.59.05,1.58-.5,2.2-1.22l.02-.03c.62-.72.91-1.76.64-2.3-.27-.54-.28-1.73-.02-2.65l.05-.17c.26-.92,1.24-1.76,2.19-1.87l.13-.02c.95-.11,1.66-.98,1.59-1.93l-.02-.28c-.07-.95-.73-1.88-1.46-2.08-.73-.19-1.89-.16-2.58.06-.69.23-2,.64-2.91.91l-2.44.74c-.91.28-1.88.88-2.15,1.34-.27.46-1.22,1.12-2.11,1.46l-4.45,1.72c-.89.34-1.91.5-2.26.34-.36-.16-1.3.14-2.1.65l-2.53,1.63c-.8.52-1.53,1.72-1.63,2.66l-.03.35c-.09.95-.53,2.42-.97,3.26l-1.25,2.4c-.44.85-.36,2.18.19,2.96l.72,1.04c.54.78.91,1.97.81,2.64-.1.67.15,1.93.55,2.79l.24.52c.4.87.69,2.35.65,3.31l-.23,5.55c-.04.95-.46,2.41-.94,3.23l-8.24,14.18c-.48.82-1.37,2.1-1.98,2.83l-3.78,4.51c-.61.73-1.7,1.84-2.42,2.47l-6.17,5.4-.5.44c-.77.67-1.44.5-2.34.86-1.38.54-1.72,3.13-2.18,4.44-.31.9-1.02,1.81-1.56,2.03-.54.22-1.28,1.12-1.64,2l-.16.39c-.36.88-1.11,2.23-1.69,2.99l-.29.39c-.57.76-.7,2.09-.3,2.95l.23.47c.41.86.75,2.12.77,2.8s.53,1.82,1.15,2.55l1.8,2.11c.62.73,1.11,2.1,1.1,3.05l-.04,2.95c-.01.95-.58,2.06-1.26,2.47-.68.41-1.3-.04-1.37-.99l-.1-1.41c-.07-.95-.52-1.57-1.01-1.37-.48.2-.98,1.13-1.1,2.08l-.28,2.24c-.12.95-.92,2.05-1.78,2.46l-1.51.72c-.86.41-2.06,1.34-2.68,2.07l-.3.36c-.61.73-1.31,1.29-1.56,1.23-.25-.05-.84-.45-1.31-.88-.47-.43-1.27-.77-1.77-.75-.5.02-1.09.2-1.31.42-.22.21-.15.7.15,1.09.32.41,1.18.55,1.17,1.13-.02.9-.82,1.15-1.59,1.15s-1.57-.22-1.76-.48c-.19-.27-1.05-.27-1.91,0-.86.27-1.94.48-2.4.48s-1.1-.26-1.42-.59c-.32-.32-.59-.77-.59-.99s.06-.51.14-.65c.08-.13,0-.33-.17-.43-.17-.1-.53.17-.78.6-.26.44-.5.51-.55.16-.05-.35-.39-1.18-.75-1.86-.36-.66-1.24-.77-2-.26-.02.02-.05.03-.07.04-.93.67-1.87,1.48-3,1.77-.22.06-.52.19-.45.41.03.11.14.16.24.21.59.28,1.32.61,1.32,1.39,0,.29-.4.74-.88,1-.49.26-1.03-.1-1.21-.8-.18-.7-.99-1.69-1.8-2.19l-.07-.04c-.81-.5-1.92-.97-2.48-1.04-.55-.07-1.11-.48-1.25-.91-.13-.43.33-1.32,1.03-1.96l1.8-1.67c.7-.65,1.22-1.87,1.15-2.71-.07-.84-.73-2.02-1.47-2.62l-.23-.19c-.74-.6-2.09-.84-3-.55l-2.66.87c-.91.3-2.21,1.01-2.9,1.59-.76.64-1.31.71-2.28.79-.29.02-.58.04-.84.16-.48.21-.76.69-1.11,1.08-1.12,1.24-2.6,1.26-4.09,1.08-.16-.02-.33-.04-.49-.07-.94-.14-1.98-.38-2.3-.54-.32-.16-1.36-.23-2.31-.17l-.48.03c-.95.07-2.51.19-3.45.27l-2.6.22c-.95.08-2.06-.02-2.46-.23-.4-.21-1.42,0-2.25.45l-3.67,2.02c-.55.31-1.24.6-1.81.81-.29.1-.56.19-.75.23-.57.11-1.74.54-2.6.95l-3.45,1.66c-.86.41-2.34.77-3.29.79l-5.41.11c-.95.02-2.15.18-2.66.35-.51.17-1.42.43-2.02.58-.6.14-1.87.29-2.83.32l-3.96.14c-.95.03-2.49-.11-3.42-.33l-2.12-.49c-.93-.21-2.02-.35-2.43-.31-.41.04-1.42.45-2.25.92l-2.29,1.28c-.83.47-1.8,1.06-2.16,1.33-.36.27-1.01.42-1.45.35-.44-.07-1.56-.31-2.48-.54l-1.2-.29c-.93-.23-1.98-1.13-2.34-2.02l-.25-.62c-.29-.7-.34-1.38-.09-2.06.05-.15.11-.3.19-.45.11-.19.24-.46.08-.62-.11-.1-.28-.08-.42-.05-.95.19-1.86.45-2.8.65-.52.11-1.04.14-1.42.08-.3-.04-.52-.13-.6-.26-.18-.3-.72-.75-1.19-1-.47-.26-1.41.09-2.08.76l-.04.04c-.67.67-1.43,1.32-1.69,1.43-.26.11-.92.21-1.47.22-.55.01-1.31.35-1.69.76-.38.41-1.46.81-2.41.89l-.86.07c-.95.08-1.98.25-2.28.37-.31.12-1.15.73-1.88,1.35l-.63.54c-.73.62-1.88,1.16-2.58,1.21-.56.04-1.27-.53-1.62-.38-.53.22-.61,1.17-.51,1.58.1.46.19,1.61.21,2.56v.04c.02.95-.57,2.23-1.31,2.84l-6.75,5.6c-.91.76-2.51.84-3.24,1.81-.53.72-.86,1.78-1.33,2.59-.53.92-1.23,1.44-2.05,2.02-1.04.73-1.68,1.93-2.62,2.78-1.43,1.29-3.32,1.53-4.61,3.08-.46.55-1.03,1.07-1.28,1.16-.25.09-.77.57-1.15,1.07-.7.91-1.83,1.45-2.46,2.37-.35.51-.58,1.18-1.15,1.44-.2.09-.42.11-.62.19-.9.36-1.18,1.69-1.81,2.37-.59.64-1.25,1.21-1.46,1.26-.63.17-.65,1.05-1.15,1.35-.22.13-.48.19-.74.24-.18.03-.37.06-.51.17-.26.2-.28.58-.44.88-.21.39-.66.55-.89.91-.17.26-.19.62-.34.9-.39.76-1.16,1.36-1.93,1.72l-.31.14c-.86.4-2.35.77-3.3.81h-.24c-.95.05-2.17.5-2.71,1-.21.2-.43.36-.64.5-.33.22-.64.36-.79.34-.25-.04-.6-.13-.77-.2-.17-.07-.48-.19-.68-.26-.2-.07-.84.48-1.42,1.24l-.76.99c-.58.76-1.13,1.75-1.22,2.21-.09.46-.73,1.29-1.41,1.85-.68.55-1.37,1.05-1.54,1.1-.16.05-.35.3-.42.56-.07.26-.36.79-.65,1.19-.29.4-.6,1.31-.7,2.02-.09.71-.95,1.36-1.9,1.45l-.24.02c-.95.09-2.08.54-2.52,1-.44.46-1.57.87-2.52.9l-.76.03c-.95.03-1.84.13-1.98.2-.14.08-.46.14-.71.14s-.72-.23-1.02-.51c-.31-.28-1.16-.86-1.89-1.29-.73-.43-1.95-.59-2.7-.37-1.05.31-1.18.98-1.7,1.77-.76,1.14-2.42,1.69-3.73,1.6-.69-.05-1.32-.01-1.41.08-.09.09-.24.2-.34.23-.09.03-.17.16-.17.29s.13.3.29.38c.16.09.34.45.41.82.07.36.17,1.19.23,1.85.06.65.29,1.61.52,2.13.23.52.42,1.45.43,2.08.01.62-.24,1.58-.55,2.13-.31.55-.84,1.17-1.17,1.38-.33.21-.45,1.14-.26,2.08l.21,1.04c.19.93.47,2.11.63,2.62.16.51.19,1.56.07,2.35-.05.31-.09.81-.27,1.07-.19.27-.55.29-.72.55-.12.18-.02.44.15.56.33.24,1.23.71,1.62.48.29-.17.54-.5.57-.73.03-.23.56-.92,1.18-1.52s1.46-1.6,1.85-2.23.94-1.28,1.23-1.46c.28-.18.84-.31,1.24-.29.4.02,1.19.59,1.76,1.28s1.29,1.43,1.6,1.66c.31.23.66.83.78,1.33.12.5.42,1.09.66,1.31.24.22.61.39.83.37.22-.02.78-.19,1.25-.38.47-.19.98-.33,1.15-.3.17.03.46.33.66.66.19.34.62.54.96.45.33-.09,1.18-.64,1.87-1.22.69-.58,1.59-1.54,1.98-2.13.4-.59.73-1.25.74-1.47,0-.22.16-.63.34-.91.11-.17.39-.57.59-.36.19.21.1.66.17.92.11.4.43.7.77.93.54.37,1.19.65,1.43.62.24-.04.53-.22.64-.42.11-.19.24-.47.27-.62.04-.15.33-.26.66-.25.32.01.68.36.8.77.11.41.59.69,1.05.61.52-.09.8-.31,1.17-.64.25-.22.62-.23.85-.48.07-.08.12-.17.18-.25.31-.38,1-.47,1.45-.5.63-.05,1.89-.3,2.81-.56l.95-.27c.66-.18,1.33-.31,2.01-.33.41-.01,1.43-.16,1.77.1.14.11.38.65.53,1.2.15.55.77,1.17,1.38,1.38.61.21,1.69.89,2.41,1.51l.18.15c.72.63,1.92,1.39,2.67,1.69.75.3,2.09.82,2.98,1.16l.67.25c.89.34,2.02,1.28,2.52,2.1l.2.32c.49.82,1.04,1.44,1.21,1.39.17-.05.27-.87.21-1.82l-.09-1.55c-.06-.95.2-1.86.56-2.03.37-.16,1.08-.52,1.59-.79.51-.27,1.13-.79,1.39-1.16.26-.37.41-1.44.33-2.39l-.16-1.94c-.08-.95-.08-2.13,0-2.63.08-.5.45-1.1.82-1.35.21-.14.38-.54.46-1.03.06-.35.07-.75.03-1.14l-.09-.85c-.1-.95.21-2.21.69-2.81.48-.6,1.35-1.7,1.94-2.45l1.68-2.14c.59-.75,1.85-1.38,2.8-1.4l1.06-.02c.95-.02,2-.08,2.33-.14.33-.05.62.11.65.37.03.26.02.74-.02,1.07-.04.33-.02.99.05,1.47.07.48.68,1.42,1.36,2.08l.51.5c.68.67,1,1.74.71,2.38-.29.64-.97,1.8-1.53,2.58l-1.17,1.65c-.55.78-.96,1.55-.9,1.71s.33.17.62.02c.29-.15,1.04-.38,1.66-.52.63-.14,1.15-.83,1.17-1.54.01-.71.24-1.75.5-2.31.26-.56.77-1.26,1.14-1.56.37-.3,1.44-.41,2.38-.24l.17.03c.94.17,2,.11,2.35-.14.36-.25,1.12-.54,1.69-.65.57-.11,1.17-.72,1.32-1.37.1-.41.25-1.02.53-1.35.32-.39.97-.54,1.33-.86.44-.38.92-.66,1.07-.62.15.04.41.18.57.3.16.12.52.2.79.17s.8-.34,1.18-.69c.37-.35,1.46-.68,2.41-.73l2.17-.11c.95-.05,2.11-.22,2.58-.38.47-.16,1-.32,1.17-.35.18-.03.6-.59.94-1.23.34-.65,1.34-1.11,2.23-1.03.89.08,2.09.04,2.67-.09.58-.13,1.29-.63,1.58-1.12.29-.49.61-.89.71-.89.1,0,.14.35.09.8-.09.8.91,1.27,1.52,1.49.8.29,1.51.27,2.35.16.95-.12,1.95-.95,2.22-1.85.28-.9.89-1.69,1.36-1.75.05,0,.12,0,.17-.01.49-.03,1.2.02,1.71.14.57.14,1.46-.11,1.98-.55.52-.44,1.69-1.04,2.6-1.33l.93-.3c.91-.29,1.85-.64,2.09-.76.24-.13.5-.43.57-.68.07-.25.66-.74,1.31-1.08s1.5-.31,1.9.08c.4.39,1.16,1.35,1.69,2.14l.18.27c.53.79,1.71,1.42,2.61,1.39.9-.03,2.16.06,2.79.2.63.13,1.46-.02,1.83-.33.76-.64,1.21-1.6,1.75-2.41.24-.36.6-.83,1.07-.48.07.05.13.11.21.12.07,0,.13-.05.17-.11.04-.06.05-.13.06-.19.11-.56.21-.88.59-1.31.36-.41.48-.77.46-1.33-.02-.59-.57-1.03-1.23-.97-.66.06-1.46.32-1.77.58-.32.26-.68.24-.8-.05-.12-.28-.12-.64,0-.79.13-.15.99-.43,1.93-.62,1.11-.22,2.27-.67,3.14.37.29.35.8.6,1.12.55.33-.05,1.06-.39,1.64-.76.58-.37,1.33-.73,1.68-.8.35-.08,1.08-.78,1.62-1.57l.89-1.3c.54-.79,1.43-1.82,1.98-2.31.3-.27.81-.53,1.37-.74.45-.17.93-.3,1.35-.35.83-.1,1.7-.35,2.53-.19.65.13,1.69.02,2.04-.65.28-.53.64-.93.82-.89.18.03.39.16.47.27.08.12.57.15,1.09.08.52-.08,1.17-.33,1.46-.56.28-.23.84-.4,1.23-.38.81.05,1.59.25,2.4.18.51-.05,1.02-.1,1.53-.15.95-.09,2.49-.04,3.44.11,0,0,.2.03.32.06.12.03,1.25.3,1.25.3.93.22,2.13,1.04,2.68,1.82.37.53.72,1.21,1.32,1.49.36.17.79.25,1.17.38.9.31,1.86.75,2.13.98.27.23,1.02.62,1.68.85.66.23,1.94.68,2.84.98l.99.34c.9.31,2.38.31,3.28.01l.27-.09c.9-.3,2.34-.89,3.2-1.31l1.26-.62c.86-.42,2.21-.86,3-.99.61-.09,1.59-.07,2.43.05.25.04.49.08.7.13l.34.08c.93.22,2.03,1.1,2.45,1.96l.04.07c.42.86.68,2.33.59,3.28l-.03.26c-.09.95-.65,2.34-1.24,3.08l-2.82,3.58c-.59.75-1.52,2-2.07,2.77l-.52.73c-.55.78-1.54,1.81-2.19,2.3-.65.49-1.93,1.14-2.83,1.44l-1.6.53c-.9.3-1.71,1-1.79,1.55-.08.55.32,1.27.89,1.59.15.09.29.2.41.32.34.35.56.8.52,1.16-.06.49.09,1.14.33,1.44.24.31.74.66,1.11.78.37.12.75.64.85,1.15.1.51-.43,1.4-1.18,1.99l-.23.17c-.75.58-1.52,1.48-1.7,1.99s.32,1.35,1.11,1.87c.79.52,1.16,1.37.82,1.89-.35.52-1.21,1.21-1.93,1.54-.71.33-1.38,1.26-1.48,2.07-.1.82-.44,1.67-.74,1.89-.31.22-.26.74.11,1.15.37.41,1.2.74,1.85.74s1.55.15,2,.33c.45.18,1.21,1,1.7,1.82l.52.88c.49.82,1.57,1.86,2.41,2.31l3.17,1.7c.84.45,1.71,1.4,1.93,2.12.22.71.12,1.51-.22,1.78-.35.27-.63.67-.63.89s.27.56.59.74c.33.18.86,1.07,1.19,1.97.33.9,1.26,2.04,2.07,2.54,0,0,3.71,2.28,3.93,2.28s7.8,1.76,7.8,1.76c.93.22,1.9.69,2.17,1.06.27.37.67.57.89.44.22-.12.8-.9,1.28-1.72l.03-.05c.48-.82,1.6-1.79,2.48-2.15l.42-.17c.88-.36,1.85-1.07,2.14-1.57.17-.28.39-.65.67-.83.29-.17.64-.09.94-.21.03-.01.07-.03.09-.07.03-.06-.04-.13-.1-.16-.12-.06-.25-.1-.36-.17-.36-.21-.23-.87-.16-1.22.09-.45.34-1.04.56-1.3.22-.27.54-.52.72-.56.17-.04.4-.57.5-1.19.09-.55.35-1.19.59-1.54.03-.04.06-.09.08-.12.27-.3.78-1.26,1.15-2.15l.71-1.72c.36-.88.98-2.32,1.36-3.19l.41-.92c.38-.87,1.35-2.01,2.15-2.54l.86-.56c.8-.52,1.66-1.12,1.92-1.34.26-.21.65-.39.87-.4.22,0,.38-.5.34-1.09-.03-.59.06-1.15.2-1.23.14-.09.57.06.95.33.38.27.82.44.99.37.17-.06.26-.62.21-1.23-.05-.61-.43-1.66-.85-2.32-.42-.66-1.1-1.22-1.52-1.23-.42-.02-.73-.28-.69-.59.04-.31.74-.97,1.55-1.47l.31-.19c.81-.5,1.55-1.27,1.65-1.72.09-.45.4-1.13.67-1.5.28-.38,1.2-1.04,2.04-1.48l.27-.14c.85-.43,2.17-1.12,2.95-1.52.77-.4,2.05-1.17,2.84-1.7.79-.54,1.69-.95,2.01-.93.32.02.68.09.82.16.13.06.39.14.57.17.18.03.44-.15.57-.4.13-.25.36-.44.5-.42.14.02.28.26.32.52.03.26.27.44.53.4.26-.04.99-.65,1.63-1.36l.06-.06c.64-.71,1.12-1.48,1.07-1.72-.05-.24.39-.49.97-.56.58-.07,1.1.01,1.15.19.05.17-.08.48-.27.69-.2.2-.42.49-.5.63-.08.14.55.24,1.4.21.85-.02,1.72.12,1.93.33.21.2.89.31,1.5.23.61-.08,1.17,0,1.23.19.06.18.02.47-.09.64-.11.17-.07.5.1.73.16.23.36.38.44.34.08-.04.12-.26.08-.49-.04-.23.37-.49.92-.59.54-.09.91-.95.81-1.89v-.08c-.11-.95.03-1.77.3-1.82.27-.06.48-.2.47-.32,0-.12-.33-.38-.72-.59-.39-.2-.52-.68-.3-1.05.22-.37.48-.69.59-.7.1-.02.24.14.32.34.07.2.29.35.49.33.2-.02.35-.26.34-.52,0-.26.04-.61.1-.77.06-.17.11-.73.11-1.25s-.14-1.04-.32-1.16c-.17-.12-.64-.24-1.05-.27-.4-.03-.84-.25-.97-.49-.13-.24-.37-.53-.52-.66s-.39-.45-.53-.71c-.14-.26-.92-.6-1.73-.75-.81-.15-2.19-.6-3.05-.99l-.91-.41c-.87-.39-1.84-1.16-2.17-1.71-.32-.55-.87-1.17-1.22-1.4-.35-.22-1.41-.42-2.37-.45h-.09c-.95-.03-1.82-.26-1.93-.52-.11-.26,0-1.16.22-2,.23-.84.22-1.68-.02-1.88-.24-.2-.64-.42-.88-.5-.24-.08-.27-.77-.07-1.53.2-.77.63-2.04.96-2.83.32-.79,1.07-2.01,1.66-2.71.59-.7,1.33-2.02,1.64-2.92l.17-.48c.31-.9.53-1.91.49-2.24-.04-.33.29-1.29.74-2.13l.23-.44c.44-.84.99-2.15,1.21-2.91.22-.76.57-1.83.76-2.39.15-.42.34-.86.48-1.11l-.55-.56c.16.16.32.34.49.49.39.36.8.65,1.14,1.07.15.18.27.36.4.57.14.21.28.42.44.62.25.3,1.09.39,1.87.19s1.82-.45,2.31-.55c.49-.1,1-.03,1.13.16.13.19.26.72.28,1.18.03.46-.19,1.31-.49,1.89-.29.58-.9,1.3-1.35,1.6-.45.3-.82,1.18-.83,1.96-.01.78.2,1.87.47,2.43.27.56.67,1.2.88,1.42.21.22.29,1.18.17,2.13l-.08.66c-.11.95.12,2.43.52,3.29l.02.05c.53,1.15,1.76,2.11,2.86,2.69.18.09.41.18.56.04.11-.1.12-.26.12-.4,0-.57.04-1.14,0-1.71-.06-.84-.22-2.16-.36-2.93-.14-.77-.31-1.94-.38-2.61-.07-.67.18-1.47.56-1.78.38-.31.77-.94.86-1.4.09-.46.35-.87.59-.92.24-.05.41.26.38.7-.02.43-.25,1.52-.5,2.41-.25.89.16,1.94.9,2.34.74.4,1.51.95,1.71,1.24.2.28.72.46,1.17.38.45-.07,1.09-.25,1.44-.38.35-.14.89-.19,1.22-.11.32.07.84.21,1.15.29.31.09.82.25,1.13.36.31.11.88-.21,1.26-.72.38-.51,1.19-.87,1.8-.81.61.06,1.58.14,2.16.18.58.04,1.26.35,1.51.7.25.35.41,1.22.36,1.94s-.51,1.44-1.01,1.6-1.55.76-2.32,1.32l-.86.64c-.77.57-1.96,1.3-2.65,1.64-.69.33-1.6.74-2.03.9-.42.16-1.07.32-1.44.36-.37.04-1.18.6-1.8,1.26-.62.66-1.28,1.29-1.46,1.42-.19.12-.26.33-.16.45.1.12.73.19,1.4.16.67-.04,1.87-.24,2.68-.45.8-.21,2.2-.62,3.11-.92l3.46-1.13c.91-.3,2.39-.78,3.3-1.07l3.54-1.14c.91-.29,2.11-.6,2.68-.69.34-.05.91-.08,1.53-.08.42,0,.85,0,1.24.03l5.77.34c.95.06,2.1.18,2.56.28.46.1.99.29,1.19.43.2.14,1.14.21,2.09.17l2.25-.11c.95-.04,2.23-.12,2.83-.17.61-.05,1.77.02,2.59.16.82.14,2.23.48,3.14.76l.29.09c.91.28,2.32.76,3.14,1.06.82.3,2.03.78,2.7,1.08.67.3,1.32.47,1.44.38.12-.09.07-.34-.11-.56-.19-.22-.4-.62-.47-.88-.07-.26-.09-1.25-.03-2.2l.02-.32c.06-.95.24-2.08.42-2.52.17-.43.93-1.27,1.68-1.85l.1-.08c.75-.59,1.49-1.28,1.64-1.54.15-.26.44-1.23.64-2.16l.25-1.12c.2-.93.71-2.31,1.11-3.06.41-.76,1.43-1.74,2.27-2.19l.45-.24c.84-.45,1.96-.93,2.49-1.07.53-.14,1.11-1.02,1.29-1.95l.07-.34c.18-.94.91-2.03,1.61-2.43.7-.4,1.44-1.08,1.64-1.51.2-.43,1.08-1.08,1.96-1.45l.69-.29c.88-.37,2.05-.93,2.6-1.25.55-.31,1.77-.41,2.7-.22l.85.17c.93.19,2.24.7,2.91,1.12.66.43,1.24,1.08,1.28,1.46.04.38.21.84.39,1.03.18.19.48.78.68,1.32.2.54.1,1.02-.22,1.07-.32.05-.67.19-.77.32-.1.13-.3.23-.45.23s-.36-.14-.48-.32c-.12-.17-.63-.28-1.14-.23-.51.05-1.11.21-1.34.36-.23.15-.6,1.04-.84,1.96l-.02.08c-.23.92-.4,2.46-.36,3.41v.1c.04.95,0,1.88-.09,2.05-.09.18-.14.38-.12.45.02.07.25.13.52.12.27,0,.44.24.38.55-.06.31-.25.65-.42.77-.18.12-.29.27-.24.34.04.07.16.17.26.23.1.06.19.77.21,1.58.02.81.09,1.68.15,1.94.06.26.09.56.05.68-.04.12-.36.43-.72.69-.36.26-.67.68-.68.93-.01.25.42,1.09.97,1.87l.3.42c.55.78,1.42,1.95,1.94,2.59.52.64,1.04,1.21,1.16,1.27.12.05.34.05.49,0,.15-.06.63-.37,1.05-.7.43-.33,1.38-1.08,2.12-1.67.74-.59,1.45-1.11,1.57-1.16.12-.04.26-.03.3.02.04.06.04.23,0,.39-.04.16-.02.3.05.31.07.01.24-.09.37-.23.14-.14.32-.61.4-1.03.08-.43.38-1.37.67-2.09.28-.72.63-1.4.76-1.5.14-.11.33-.21.42-.23.09-.02.48-.71.86-1.54.38-.83.92-2.07,1.21-2.76.28-.69.77-1.39,1.07-1.56.3-.17.73-.48.94-.68.21-.21.52-.39.68-.41.16-.02.35-.81.41-1.76v-.12c.07-.95.04-1.79-.05-1.87-.09-.08-.26-.16-.38-.18-.12-.02-.3-.08-.4-.14-.11-.06-.34-.14-.52-.18-.18-.04-.35-.85-.37-1.8l-.03-1.13c-.03-.95-.35-1.97-.73-2.26-.38-.29-.64-.8-.59-1.13.05-.33.33-.71.61-.83.24-.11.8-.62,1.34-1.22.1-.11.2-.22.3-.34l.04-.05c.61-.73,1.2-1.48,1.31-1.67.11-.19.1-.65-.02-1.01-.12-.36-.24-1.09-.27-1.62-.03-.53.35-1.39.85-1.91.5-.52,1.6-1.3,2.46-1.72l1.14-.56c.85-.42,2.29-1.03,3.18-1.35l.74-.26c.9-.32,2.37-.63,3.28-.68.9-.05,2.42-.04,3.37.03l1.18.08c.95.07,2.23.61,2.84,1.2.61.59,1.31,1.75,1.54,2.57.24.83.32,2.21.19,3.07-.13.87-.3,1.91-.38,2.31-.08.41-.03.76.12.79.14.03.65-.33,1.12-.79.47-.46,1.06-1.2,1.31-1.64.25-.45.54-1.12.64-1.49.1-.37.55-.94.98-1.25.44-.31.94-.84,1.12-1.18.18-.34.3-.77.27-.97s-.79-.63-1.68-.96l-.13-.05c-.89-.33-1.87-.79-2.18-1.01-.3-.23-.5-.75-.43-1.15.07-.41.35-.87.63-1.02.27-.16.56-1.05.64-1.99.08-.94.6-2.26,1.16-2.94.56-.68,1.68-1.64,2.48-2.12.8-.49,1.79-1.33,2.2-1.86,0,0,0-.01.01-.02.4-.54.66-1.38.58-1.87-.08-.5-.38-1.19-.67-1.52-.28-.33-.24-1.06.09-1.61.33-.55,1.06-1.11,1.61-1.25.55-.13,1.36-.56,1.79-.94.38-.34,1.3-.69,2.16-.84.12-.02.24-.04.35-.05l.51-.05c.95-.1,2.4.2,3.23.66l.99.56c.83.47,1.8,1.57,2.15,2.46l.19.49c.35.89.31,1.86-.1,2.16-.4.3-1.28,1.1-1.96,1.77l-1.69,1.69c-.67.67-1.64,1.51-2.14,1.86-.5.35-1.23,1.35-1.63,2.22l-.28.61c-.39.87-1.23,1.67-1.87,1.79-.64.12-1.33.91-1.55,1.76-.22.85-.07,1.84.33,2.19.4.35.77,1.42.82,2.37v.19c.06.95-.33,2.13-.85,2.61s-.85,1.66-.73,2.6l.3,2.4c.12.95.34,2.21.49,2.81.15.6.38,1.25.52,1.43.13.18-.14.92-.61,1.64-.47.72-1.43,1.44-2.13,1.61-.7.17-1.22.47-1.16.67.07.2.44.38.82.4.38.02,1.16.26,1.73.55.57.28,1.36.76,1.76,1.06.4.3,1.1.49,1.55.43.45-.07,1.35-.61,2.01-1.22.65-.6,1.28-1.79,1.4-2.65.12-.85.77-2.1,1.45-2.77l1-.98c.68-.67,1.65-1.39,2.15-1.61.5-.22,1.24-.82,1.64-1.34,1.38-1.78,3.26-.3,4.98-.94.49-.18.89-.55,1.37-.76,1.06-.45,2.2-.07,3.25-.65.37-.2.98-.6,1.37-.88.38-.28.92-1.26,1.2-2.18l.1-.33c.27-.91.46-2.44.41-3.39l-.31-5.91c-.05-.95.17-2.46.5-3.36l1.08-3c.32-.9,1.05-2.23,1.62-2.97.57-.74,1.62-1.85,2.34-2.47l4.19-3.63c.72-.62,2.07-1.31,3-1.53l2.53-.6c.93-.22,2.25-.4,2.93-.4s.84-.39.35-.87c-.49-.48-1.49-1.39-2.21-2.02-.34-.3-.75-.62-1.03-.97-.26-.33-.35-.79-.59-1.16-.04-.06-.09-.12-.14-.18l.18.18c.11.07.23.16.38.29,1.15.95,2.23,1.86,3.5,2.64.14.09.32.17.45.08.06-.04.09-.12.12-.19.2-.63-.23-1.11-.55-1.6-.38-.57-.71-1.38-1.18-1.86l-.78-1.27c-.5-.81-1.2-1.82-1.55-2.24-.36-.42-.91-.96-1.23-1.2-.32-.24-.91-.99-1.32-1.67-.41-.68-1-1.98-1.31-2.88l-1.19-3.36c-.32-.9-.79-2.38-1.06-3.3l-.68-2.36c-.26-.92-.65-1.94-.85-2.28-.2-.34-.29-1.21-.2-1.92.09-.72.33-1.97.54-2.78.31-1.23.51-2.63,1.07-3.77.42-.83.54-1.58.56-2.51l.04-2.76c.02-.95.11-1.89.21-2.08.1-.19.36-1.1.59-2.01s.71-2.28,1.1-3.05c.66-1.32.9-2.97,1.97-4,.17-.17.36-.32.49-.52.53-.76.38-2.35.45-3.28.07-.95.52-2.35.99-3.12.47-.77,1.19-1.7,1.61-2.09.41-.38.82-1.26.91-1.95.09-.69.1-1.73.03-2.3-.01-.08,0-.17,0-.25,0-.49.16-.95.41-1.09.29-.16,1.27-.54,2.18-.85l.52-.17c.9-.31,1.91-.69,2.23-.85.32-.16,1-.91,1.5-1.66.5-.75.98-1.76,1.07-2.25.09-.49.2-1.66.24-2.61l.1-2.16c.05-.95.17-2.51.27-3.45l.1-.94c.1-.95.33-2.49.49-3.43l.41-2.31c.17-.94.39-2.25.49-2.91.1-.66.23-1.98.28-2.93l.19-3.71c.05-.95.14-1.98.2-2.29.06-.31,0-1.34-.11-2.28l-.41-3.2c-.12-.95-.31-2.49-.42-3.44l-.24-2.12c-.11-.95-.22-2.1-.24-2.57-.02-.47-.42-1.39-.9-2.05-.47-.66-.88-1.44-.9-1.72-.02-.29-.13-.88-.25-1.32s-.6-1.41-1.08-2.16c-.47-.75-.9-1.82-.95-2.38,0-.09-.01-.19-.02-.31-.03-.63-.02-1.63.02-2.44l.06-1.17c.05-.95.15-2.45.24-3.33.08-.88.25-2.37.37-3.31l.14-1.12c.16-1.22.81-2.29,1.2-3.46.4-1.18.73-2.39,1.25-3.53l.04-.08c.39-.87.82-1.7.94-1.84.13-.15.33-.27.46-.27s.3.03.39.08c.09.04.24-.56.34-1.33.1-.77.48-1.83.85-2.34.37-.52.96-1.19,1.3-1.51s.82-.59,1.05-.61c.23-.02.49.03.57.11.08.08.23.35.32.6.09.24.42.4.73.34.31-.06.9-.44,1.3-.85.4-.41,1.01-.82,1.34-.9.33-.08,1.14-.26,1.8-.39.97-.2,1.97-.29,2.95-.38.54-.05,1.13-.21,1.67-.05.69.2.93.77,1.71.8.36.01.75,0,.86-.05.11-.04.27.06.34.23.08.17.16.45.19.63.03.18.33,1.06.68,1.94l.06.16c.45,1.15,1.38,1.93,2.59,2.22.4.1.95.13,1.23.08.28-.06.56-.27.62-.47.06-.2-.06-.44-.28-.53-.22-.09-.38-.27-.37-.39.01-.13.1-.32.19-.44.09-.12.03-.57-.13-1s-.5-.85-.76-.94-.53-.31-.59-.51c-.07-.19.31-.53.85-.73.54-.21.95-.47.91-.57-.03-.1-.38-.18-.77-.18-.39,0-.78-.21-.86-.48s-.42-.56-.75-.63c-.33-.08-.34-.53-.03-1.01.31-.48.66-.91.76-.96.1-.05.17-.28.15-.51-.02-.23-.14-.53-.27-.67-.13-.14.1-.37.49-.52.4-.15.82-.92.95-1.71.13-.79.09-1.57-.08-1.72-.17-.15-.7-.11-1.19.1-.49.21-.94.09-1-.25-.06-.35-.39-.83-.73-1.08-.34-.24-.28-.52.13-.62.41-.1,1.16-.49,1.67-.87.79-.59.74-1.68-.02-2.27-.2-.15-.46-.2-.71-.2s-.51.02-.76,0c-.46-.06-.95-.3-.94-.83,0-.33.19-.76.41-.95.22-.19.61-.34.87-.34s.65-.09.85-.2c.2-.11.45-.41.54-.66s.45-.65.78-.89c.33-.24.74-.28.9-.1.16.18.42.33.58.33s.29-.14.29-.3-.08-.59-.18-.94c-.1-.35-.41-.89-.68-1.2-.28-.31-.4-.77-.27-1.03.13-.25.36-.9.51-1.44.15-.54.44-1.08.66-1.19.22-.11.55-.38.73-.61s.39-.97.46-1.67c.04-.45.08-.9.37-1.26.27-.33.6-.79,1.07-.8.19,0,.52.08.75.19.22.11.51.27.65.34s.17-.24.09-.7c-.08-.46-.33-1.23-.56-1.72-.09-.2-.18-.5-.27-.83-.13-.49-.25-1.05-.31-1.54-.1-.81-.16-1.67-.14-1.91.02-.24.21-.47.43-.52.22-.05.53,0,.7.13.17.12.53.63.81,1.14.28.51.79.3,1.14-.46.35-.76.66-1.58.7-1.84.03-.25.19-.62.35-.81.1-.12.25-.25.41-.24.14.01.32.16.29.32-.02.09-.1.16-.15.24-.05.08-.07.2,0,.26.03.02.07.03.11.04.5.08,1.06.08,1.57.06l.92-.05c.95-.05,1.99-.61,2.31-1.25.32-.64.24-1.35-.18-1.57-.58-.31-1.1-1.07-1-1.75,0-.05.02-.11.05-.16.05-.07.13-.11.21-.13.29-.07.57.11.87.17.22.04.48.02.63.18.1.1.13.25.22.36.01.01.02.03.04.03.06.02.1-.06.12-.12.06-.31.12-.62.18-.93.04-.21.13-.63-.03-.83-.1-.13-.39-.32-.65-.42-.25-.1-.36-.35-.25-.57.11-.22.69-.53,1.28-.7.59-.17,1.08-.46,1.08-.65s-.3-.59-.66-.89c-.95-.78.13-1.17.81-1.51.49-.24,1-.43,1.14-.43s.3.06.35.13c.06.07.19.13.29.13s.05-.29-.11-.65-.72-.79-1.23-.96c-.51-.17-.87-.52-.8-.77.07-.25.3-.47.51-.48.21-.01.42-.16.47-.32.05-.16-.13-.58-.39-.92-.51-.68-.11-.89.56-1.04.39-.08.85-.23,1.03-.33.17-.1.11-.31-.14-.48-.37-.25-.73-.3-.99-.73-.23-.38-.28-.86,0-1.22.14-.18.46-.43.71-.54s.66-.71.91-1.3c.25-.6.52-1.34.6-1.65.08-.31.23-.51.33-.44.11.07.23.26.28.43.05.17.32.31.6.32.28,0,.88-.67,1.33-1.51l.11-.2c.45-.84.73-1.59.62-1.67-.11-.08-.82.1-1.59.39-.33.12-1.1.52-1.44.28-.29-.21.66-1.14.82-1.31l1.78-1.97ZM630.08,569.85s0,0,0,0c-.72-.69-1.45-1.36-2.15-2.07.72.69,1.44,1.38,2.15,2.07Z"/>
    <path class="cls-2" d="M364.14,676.3c-1.79-.52.19-2.68.31-3.54.09-.67-.37-1.79-1.02-2.49l-1.02-1.09c-.65-.69-1.6-1.56-2.11-1.93-.51-.37-.79-1.02-.63-1.45.16-.43.52-1.53.8-2.44l.4-1.34c.27-.91.44-2.19.36-2.85-.12-1.06-.67-1.94-.76-3-.02-.25-.08-.54-.3-.64-.14-.06-.3-.04-.45,0-1.37.27-2.73.54-4.11.77-.56.09-1.28,0-1.93-.2-.44-.14-.85-.34-1.16-.57-.75-.58-1.87-1.06-2.48-1.06s-1.49-.27-1.94-.6c-.46-.33-1.04-.84-1.29-1.14-.26-.3-.61-.58-.78-.62-.17-.04-.39-.73-.49-1.53-.1-.8-.44-1.32-.75-1.17-.85.42-1.79-.29-2.63.23-.07.04-.13.09-.21.13-.78.37-1.17-1.01-1.34-1.5-.14-.4-.57-1.49-1.15-.99-.21.18-.27.5-.52.61-.32.14-.66-.18-1.01-.19-.16,0-.32.06-.46.13-1.04.48-2.13,1.35-3.37.95-1.19-.38-2.42-.65-3.62-.97-.21-.06-.42-.11-.63-.06-.28.07-.48.32-.61.57-.54,1.03-.85,1.81-2.08,2.23-.85.29-2.13,1.05-2.84,1.69l-2.65,2.36c-1.4,1.25-2.73.77-4.35.4-.08-.02-.17-.04-.26-.02-.22.04-.35.28-.34.5.01.22.14.42.28.59.36.45.54.95.84,1.43.37.59.57,1.84.45,2.79l-.16,1.24c-.13.94-.72,2.32-1.32,3.06l-1.25,1.54-1.69,2.08c-.6.74-1.87,1.25-2.81,1.14l-4.95-.6c-.95-.11-2.41.15-3.26.59l-3.23,1.67c-.85.44-2.31.68-3.25.55l-.45-.07c-.94-.14-2.09-.93-2.55-1.77l-1.37-2.48c-.46-.83-1.33-2.12-1.93-2.86-.83-1.02-1.64-2.05-2.47-3.07-.11-.14-.25-.28-.43-.3-.25-.03-.45.21-.53.45-.15.48-.31,1.03-.35,1.54v.05c-.11.95-.88,2.1-1.71,2.57l-3.17,1.79c-.83.47-1.69,1.61-1.91,2.54-.26,1.08-.41,2.45-1.35,3.17-.31.23-.69.38-.93.68-.72.88-.52,3.12-.59,4.2-.07,1.1-.14,2.19-.21,3.29-.06.95-.79,2.12-1.61,2.6l-4.89,2.86c-.82.48-2.02,1.45-2.67,2.15l-2.05,2.23c-.64.7-1.87,1.63-2.71,2.07l-11.49,5.9c-.85.44-1.3,1.18-1.01,1.66.29.48,1.18.43,1.96-.11l.98-.67c.54-.37,1.18-.84,1.82-1.01.81-.22,1.53-.35,2.22-.85.32-.23.64-.46.98-.67.81-.51,1.93-1.06,2.51-1.23.57-.17,1.51.1,2.08.59.55.47.78,1.3.83,1.99.06.91-.41,1.71-.39,2.62.02.7.27,1.41.13,2.1-.04.22-.13.43-.11.65.07.91,1.93.51,2.46.41l.09-.02c.94-.18,1.97-.18,2.29,0,.87.49-.44,1.71-.77,2.05-.1.1-.21.28-.1.38.05.04.11.05.18.05.72.03,1.26.15,1.77.72.17.19.28.78.25,1.31-.03.53-.47,1.36-.98,1.86-.7.67-2.23,1.28-2.42-.18-.02-.17-.03-.36-.16-.47-.18-.16-.48-.03-.6.17-.2.36-.08,1.04-.05,1.44.06.87.45,2.16.87,2.87.3.51.6,1.28.51,1.89-.05.29-.4,1.53-.79,1.37-.06-.03-.11-.08-.17-.11-.2-.1-.44.13-.41.35s.23.37.45.42c.21.04.42,0,.63.03.52.06.48.54.72.9.34.53.72,1.16.84,1.41.12.25.06.84-.14,1.32-.2.48-.44,1.54-.53,2.36-.09.82.35,1.42.98,1.32.63-.09,1.25-.55,1.38-1.01s.43-.84.68-.84.92.32,1.49.7c.47.32,1.3.58,2.01.67.15.02.3.04.43.04.77,0,1.77.14,2.22.31.45.17.82.56.82.87s-.43,1.21-.96,2l-1.23,1.84c-.17.25-.27.57-.44.81-.17.23-.44.36-.56.63-.12.28,0,.67.29.73.09.02.17,0,.26-.01,1.13-.2,2.36-.6,3.49-.15.46.19,1,.55,1.18.82.19.26.91.48,1.6.48s1.79-.32,2.42-.7,1.9-.68,2.81-.65c.91.03,1.88.65,2.14,1.38.26.73,1,1.32,1.63,1.32s1.1-.49,1.04-1.1c-.06-.6-.67-1.64-1.35-2.31l-.17-.16c-.68-.67-.64-1.86-.56-2.73.03-.32.06-.64.19-.94.35-.77.92-1.25,1.09-2.12.06-.29.07-.59.11-.88.1-.85.21-1.71.31-2.56.12-.95.54-1.93.94-2.2.4-.26,1.26-.54,1.91-.62.65-.08,1.52-.84,1.93-1.7l1.66-3.46c.41-.86,1.29-2.01,1.96-2.55.67-.54,1.53-1.52,1.91-2.17.39-.65.63-1.79.53-2.53-.09-.74-.24-1.56-.33-1.82s.01-.7.22-.98c.21-.28.75-1.02,1.2-1.64.3-.41.81-2.19,1.43-1.88.21.11.33.36.56.44.24.08.49-.07.69-.23.35-.28.64-.51,1.02-.73.54-.32,1.62-1.04,2.38-1.6l1.04-.76c.77-.56,1.57-1.21,1.78-1.43.21-.22,1.11-.68,2.02-1.04,1.01-.4,1.49-1,1.77-2,.03-.1.06-.21.13-.29.13-.13.34-.13.52-.11.61.06,1.2.23,1.81.28.77.07,1.19-.22,1.86-.46.41-.14.95-.11,1.39-.16.95-.11,2.17.07,2.71.4.54.33,1.76.72,2.7.88l2.81.47c.94.16,2.22.87,2.85,1.59l2.14,2.46c.63.72,1.4,1.68,1.73,2.14.33.46,1.19,1.34,1.93,1.94l.42.35c.73.61,1.73,1.78,2.22,2.59l.1.16c.49.82,1.11,1.4,1.39,1.3.27-.1.65-.96.83-1.89l.36-1.85c.18-.94.57-2.44.87-3.35l.4-1.22c.3-.91.94-2.32,1.43-3.13l.99-1.65.25-.42c.49-.82,1-1.89,1.14-2.38.14-.49.55-.94.91-1.01.37-.07.89-.51,1.18-.99.28-.48.51-1.03.51-1.22s.4-.68.88-1.08c.48-.4,1.25-.79,1.71-.88.46-.09,1.47-.6,2.25-1.15l.7-.49c.78-.55,1.89-1.62,2.46-2.38l.02-.03c.57-.76,1.69-1.81,2.49-2.33l2.17-1.4c.8-.52,1.53-1.12,1.61-1.34.08-.22-.16-.49-.53-.61Z"/>
    <path class="cls-2" d="M246.31,724.63c-.7-.17-1.41-.3-2.07-.58-.41-.17-1.14-.48-1.59-.32-.31.1-.69.13-.84.06-.38-.17.36-.77.38-.94.02-.13-.08-.26-.2-.33-.12-.06-.26-.09-.38-.14-.57-.24-.5-.65-.36-1.11.15-.51.19-1.09.26-1.62.06-.48.87-1.01,1.81-1.18,0,0,.32-.06.38-.06.25,0,.55-.1.81-.13.17-.02.34-.04.49-.12.15-.08.27-.24.26-.41,0-.03,0-.05-.02-.07-.03-.03-.07-.03-.11-.04-.71-.02-1.5,0-2.19.19-.34.1-.89.03-1.22-.16-.33-.19-.92-.34-1.31-.34s-.59-.19-.45-.43c.16-.28.4-.52.55-.8.12-.23.15-.49.33-.68.14-.14.3-.25.45-.38.05-.04.09-.1.08-.16-.01-.07-.1-.1-.17-.12-.46-.09-.86.26-1.33.06-.09-.04-.17-.09-.26-.11-.2-.05-.4.03-.59.09-.62.19-.87-.34-1-.86-.1-.41-.01-1.19.19-1.75.2-.56.8-1.43,1.32-1.94.52-.51.81-1.12.64-1.35-.17-.23-.63-.53-1.03-.66-.4-.13-1.13-.09-1.63.11-.5.19-1.65.27-2.56.18-.91-.09-2.21-.29-2.89-.44-.68-.15-2.01-.19-2.96-.09l-.53.06c-.95.1-2.32-.13-3.04-.51-.72-.38-1.32-1.44-1.32-2.36s.16-1.95.36-2.31c.2-.35.85-.58,1.44-.49.6.08,1.33.08,1.62,0,.3-.08.95-.44,1.46-.79.51-.35.89-.8.85-.99-.04-.19-.32-.53-.61-.76s-.24-.49.12-.59c.53-.15,1.09-.02,1.63-.04.64-.03.9-.3,1.29-.78.53-.64,1.01-1.95,1.07-2.9l.04-.63c.06-.95.17-2.3.23-2.99.06-.69-.35-1.89-.91-2.66l-.87-1.17c-.51-.69-.84-1.19-.96-2.05-.02-.13-.04-.28-.13-.38-.14-.16-.39-.14-.6-.13-.74.04-1.37-.26-2.06-.47-.35-.11-.78-.13-1.06.1-.2.16-.32.44-.57.5-.22.05-.44-.09-.65-.2-.54-.28-1.22-.27-1.76,0-.78.4-1.08,1.36-1.34,2.13-.3.89-1.04,2.02-1.66,2.52-.61.5-1.9.86-2.85.8l-3.32-.19c-.95-.05-2.29-.42-2.98-.81-.67-.38-1.76-.84-2.47-1.04-.02,0-.04-.01-.06-.02-.7-.19-1.94-.43-2.76-.53-.82-.1-1.89-.85-2.37-1.67l-1.6-2.7c-.49-.82-.96-2.27-1.05-3.21l-.06-.59c-.09-.95-.41-2.03-.7-2.41-.29-.38-.35-1.25-.14-1.94.22-.69.74-1.92,1.16-2.72.42-.81.56-1.67.31-1.92s-.7-.45-1-.45-1.07.51-1.71,1.14c-.64.63-1.41,1.26-1.73,1.41s-1.04.29-1.63.31-1.39-.28-1.78-.67c-.47-.46-.53-1.6-1.22-1.71-.24-.04-.48,0-.71.06-.91.19-1.91.27-2.77.62-.29.12-.95.19-1.47.16-.52-.03-1.4.58-1.95,1.35l-.06.08c-.55.77-1.79,1.39-2.74,1.36,0,0-1.2-.03-1.2-.03-1.95-.05-4.08,2.56-4.08,4.43v.15c-.07.95-.08,2.23-.02,2.85.05.61-.44,1.48-1.1,1.92-.66.44-1.61,1.47-2.11,2.28l-1.02,1.64c-.5.81-1.69,1.53-2.64,1.6l-.2.02c-.95.07-2.25-.45-2.89-1.15l-.06-.06c-.64-.7-1.75-.76-2.45-.12-.84.76-1.66,1.16-2.65,1.7-.26.15-.55.33-.61.62-.08.43.37.75.77.94.4.18.87.44.86.88,0,1.29-2.32,1.74-3.21,1.72-.34,0-.71-.04-.99.15-.38.26-.4.79-.5,1.24,0,.01,0,.03,0,.04-.51,2.12-4.18,2.71-4.54.18l-.1-.72c-.13-.94-.67-1.97-1.18-2.28-.52-.31-1.3-.45-1.75-.31-.78.25-.99.88-1.48,1.44-.11.12-.22.24-.3.38-.24.45,1.16,2.02.31,2.3-.23.07-.47-.02-.69-.11-.2-.08-.41-.17-.61-.25-.23-.09-.54-.16-.67.05-.08.13-.04.31.01.45.28.84.48,1.71.66,2.58.09.46.17.92.26,1.38.05.29.05.85.37,1,.3.14,1.14-.46,1.14.24,0,.31-.49,1-1.08,1.53-.59.53-1.41.48-1.82-.1-.13-.19-.29-.36-.46-.52-.35-.34-.74-.6-1.01-.63-.4-.05-1.06.1-1.47.33-.41.24-1.05.16-1.43-.18-.38-.33-.92-.61-1.2-.61-.48,0-.99.13-1.47.08-.55-.07-1.08-.45-1.62-.31-.07.02-.13.04-.19.09-.22.17-.19.52-.1.79.14.4.21.75.31,1.16l.05.21c.23.92.02,2.35-.47,3.16l-.53.87c-.49.82-.42,1.71.17,1.99.58.28,1.53.77,2.1,1.08.57.31,1.09.77,1.16,1.02.06.25.44.78.82,1.18.24.24.7.74.44,1.1-.09.12-.23.2-.36.25-.27.11-.55.17-.84.18-.09.07-.05.24.05.3.1.07.23.07.35.06.72-.02,1.38.06,1.98-.43.35-.28.93-.44,1.29-.35.37.09.7.49.74.9.08.73-.42,1.22-.39,1.92.01.35.19.7.5.85.07.03.14.06.22.05.12-.01.21-.1.31-.16.8-.55,1.85-.15,2.62.22.47.23,1.31.34,1.86.25.55-.09,1.46.27,2.02.78.56.52,1.1,1.64,1.2,2.49s.1,2.19,0,2.98c-.1.79.22,1.91.71,2.49.48.58.75,1.23.59,1.43-.16.2-.68.2-1.16,0-.47-.2-1.12-.35-1.43-.31-.31.03-.89.3-1.27.59-.39.29-1.3.27-2.04-.04-.73-.31-1.32-1.32-1.31-2.23.01-.92.13-2.04.25-2.49.13-.45.24-1.03.25-1.27.01-.25-.1-.62-.24-.82-.14-.2-.59-.4-1-.43-.44-.03-.92.24-1.34.04-.22-.11-.37-.33-.48-.55-.3-.58.03-1.29-.27-1.92-.26-.55-.81-.84-1.19-1.29-.26-.3-.55-.58-.86-.83-.15-.11-.3-.22-.48-.27-.18-.04-.39,0-.51.13-.14.17-.12.41-.12.63.01.92-.34,1.34-.88,2.02-.05.07-.1.13-.12.21-.02.07-.02.14-.02.21,0,.47.16.92.2,1.38.03.48-.3.79-.73,1.01-.19.09-.41.18-.49.38-.03.08-.04.16-.04.24,0,.9.78,2.07,1.38,2.7.43.45.99,1.58,1.24,2.5l.07.26c.25.92.5,1.99.55,2.38s.79.64,1.65.57c.85-.08,1.92.55,2.4,1.4.46.83,1.05,1.97,1.31,2.52.38.8.55,1.52.17,2.34-.15.32-.4.59-.55.92-.16.34-.26.74-.36,1.11-.14.52-.38,1.3.03,1.76.21.23.53.35.85.33.69-.04,1.15-.7,1.55-1.2l3.8-4.65c.6-.74,1.8-1.67,2.67-2.08l1.13-.53c.86-.4,2.35-.73,3.3-.72h1.04c.95.02,2.13.6,2.61,1.3.48.7.39,1.88-.21,2.62-.21.26-.44.52-.64.79-.29.39-.83.64-1.05,1.07-.07.14-.09.31-.1.46-.06,1.12.42,2.03,1.26,2.74.7.59,1.64.93,2.1.74,1.22-.49,1.58-1.92,2.76-2.37.39-.15.8-.28,1.06-.61.15-.19.21-.44.35-.63.18-.25.43-.47.62-.72l1.06-1.47c.56-.77.97-1.85.92-2.4s-.46-1.69-.9-2.53l-.9-1.71c-.44-.84-1.48-1.55-2.29-1.57-.82-.02-2.16.35-2.98.84l-.69.41c-.82.48-1.7.12-1.95-.8l-.11-.42c-.25-.92.18-2.13.95-2.69l.92-.67c.22-.16.39-.36.57-.55.14-.15.28-.3.45-.42.1-.08.21-.15.28-.26.07-.1.11-.24.07-.36-.03-.09-.11-.16-.18-.23-.99-.96-1.53-2.43-2.19-3.64-.41-.77-.83-1.54-1.24-2.3-.45-.84-.16-1.93.65-2.44l3.01-1.86c.81-.5,1.84-.45,2.28.11.43.55,1.54.97,2.48.95.02,0,.03,0,.05,0l.65-.02c.95-.04,2.06.64,2.46,1.5l.14.31c.28.6.38,1.26.45,1.91.07.66-.25,1.22-.61,1.77-.12.19-.25.39-.28.62-.02.21.06.41.15.6.11.21.25.39.4.57.26.3.54.58.75.92.34.56.59,1.2.73,1.84.17.78.67,1.65,1.1,1.94.43.29,1.29,1.12,1.91,1.84l.91,1.06c.62.72,1.69,1.65,2.37,2.06.68.41,1.2,1.52,1.17,2.48l-.02.65c-.04.95-.57,2.33-1.18,3.06l-.79.95c-.61.73-1.57,1.43-2.13,1.54-1.3.28-2.09,1.77-3.44,1.82-.17,0-.35-.02-.52-.01-.17,0-.36.05-.48.17-.23.22-.16.5-.17.78-.03.59,0,1.17.05,1.76,0,.06,0,.12.04.17.05.07.16.08.24.05.08-.03.14-.1.2-.16.63-.66,1.53-1.47,2.46-1.65.45-.09,1.22-.39,1.73-.67.5-.28,1.69-.57,2.64-.64l.58-.04c.95-.07,1.56.05,1.35.26s-.76,1.06-1.23,1.89l-.47.84c-.23.41-.49.78-.76,1.16-.19.27-.38.55-.48.86-.1.34,0,.59.04.93.02.22-.03.43-.08.65-.04.17-.06.4.1.49.08.05.18.04.27.04.19-.02.39-.03.58-.05.16-.01.33-.03.48.04.55.26.08,1.19-.12,1.51l-3.33,5.28c-.67,1.06-1.09,2.44-2.03,3.32-.17.16-.38.29-.54.46-.6.6-.7,1.67-.82,2.46-.1.68-.7,1.59-1.33,2.02-.63.43-1.41,1.43-1.74,2.21-.09.22-.25.44-.44.65-.48.51-1.2.92-1.87,1.02l-3.77.53c-.94.13-1.64-.54-1.55-1.48l.04-.4c.09-.95-.06-2.04-.34-2.42-.42-.58-1.17-.45-1.79-.5-.28-.02-.58-.05-.81.12-.28.21-.29.63-.27.99.07,1.12.15,2.27.62,3.31.33.73.91,1.6,1.29,1.93.38.33,1.04.69,1.45.79.42.1.8.56.85,1.01s-.19,1.13-.54,1.52c-.35.38-.46,1.46-.26,2.39l.52,2.36c.2.93.19,2.39-.04,3.24-.23.85-.48,2.32-.58,3.27l-.09.94c-.09.95.41,2.25,1.11,2.9l2.14,1.97c.7.64,1.54,1.73,1.85,2.4.32.68.58,2.01.58,2.96v4.46c0,.95-.4,2.23-.88,2.85-.49.61-1.62,1.37-2.52,1.67l-.11.04c-.87.3-1.73.46-2.53-.08-.22-.15-.41-.33-.66-.41-.25-.09-.52-.06-.78-.04-.18.02-.36.03-.53.1-.17.07-.32.2-.36.37-.05.18.02.36.11.52.14.25.27.51.42.75.38.61.9,1.22,1.15,1.35.87.43.58,1.96,1.27,2.55.24.21.53.34.78.54.18.15.35.36.32.59-.02.16-.14.29-.23.43-.21.32-.39.84-.2,1.2.26.51,1.04.99,1.73,1.08.69.08,2.03.15,2.98.15h5.23c.95,0,2.09.69,2.52,1.54l.5.99c.43.85,1.46,1.54,2.29,1.54s2.03-.57,2.69-1.26l.09-.09c.65-.69.75-1.91.21-2.69l-1.2-1.76c-.54-.79-1.29-2.14-1.67-3.02l-1.38-3.14c-.38-.87-.54-2.35-.35-3.28l.56-2.77c.19-.93.74-2.37,1.22-3.2l1.61-2.78c.48-.82,1.01-2.09,1.18-2.82.17-.73.74-1.56,1.27-1.85.53-.29,1.62-.57,2.43-.63.81-.06,2.1.36,2.86.94l.82.62c.76.57,1.24,1.46,1.06,1.98-.18.52-.5,1.7-.72,2.63l-.11.47c-.22.93-.95,1.75-1.64,1.82-.68.07-1.41-.15-1.62-.5s-.53-.93-.72-1.3c-.19-.37-1.09-.5-2.02-.29-.93.21-1.81.56-1.96.78-.15.22-.11.74.1,1.16s.69.95,1.07,1.19c.38.23.99.34,1.36.23.37-.1.91-.14,1.2-.09.29.06.49.88.44,1.83l-.06,1.22c-.05.95.34,2.38.86,3.18l2.26,3.45c.52.8.76,2.21.53,3.13-.18.7-.35,1.41-.53,2.11-.11.42-.17.88-.3,1.3-.22.7-.47,1.24-.36,2,.07.53.18.97.04,1.5-.12.48-.82,1.36-1.55,1.97-.64.53-1.18,1.23-2.01,1.46-.17.05-.35.08-.52.15-.16.07-.32.19-.38.36-.07.21.01.44.1.64.22.53.6,1.16.23,1.72-.15.23-.19.5-.26.76-.08.3-.23.52-.41.79-.08.12-.16.26-.12.4.06.19.3.22.5.21.64-.04,1.17-.27,1.66-.67.42-.33.99-.68,1.24-1.17.19-.37,1.08-.96,1.97-1.3l3.45-1.35c.89-.35,2.24-1.09,3.01-1.66l.75-.55c.77-.56,1.78-1.67,2.26-2.46.5-.83.74-1.62,1.55-2.21.58-.41,1.18-.81,1.65-1.35.3-.34.49-.74.79-1.08.07-.08.13-.16.15-.26.02-.17-.11-.31-.22-.44-.37-.43-.41-.9-.38-1.45.03-.55-.05-1.08-.02-1.63,0-.08,0-.17-.07-.21-.03-.02-.08-.02-.11-.02-.22,0-.44,0-.67-.01-.17,0-.35,0-.51-.07-.57-.23-.74-1.33-.56-1.84.29-.84,1.12-2.02,1.85-2.64l.86-.73c.73-.61,2.05-.83,2.94-.49l1.56.6.43.16c.69.27,1.45.57,2.04,1.04.53.43.91,1.01,1.45,1.43l.3.23c.76.58,1.62.96,1.91.85.3-.11.54-.55.54-.97s.32-1.05.7-1.39c.39-.35.7-1.13.7-1.74,0-.38.02-.8.21-1.13.17-.29.37-.45.25-.83-.08-.26-.26-.48-.28-.75-.01-.17.05-.34.11-.5.18-.49.31-1.05.54-1.51.16-.3.35-.57.47-.89.12-.32.64-1.17,1.16-1.87.52-.71.94-1.8.94-2.43s.26-1.88.57-2.78l.97-2.79c.18-.48.54-1.85.14-2.3-.12-.14-.33-.17-.49-.27-.15-.09-.27-.23-.38-.37-.29-.37-.53-.72-.5-1.2.02-.33.02-.64,0-.98-.09-.95.1-2.46.42-3.37.3-.85.49-1.77.57-2.67.04-.41-.05-.8.06-1.2.12-.45.37-.85.5-1.29.12-.41.15-.85.3-1.25.22-.59.58-1.08.74-1.71.14-.56.26-1.16.51-1.69.18-.37.44-1.44.58-2.39l.11-.73c.14-.94.49-2.46.78-3.36l.05-.16c.29-.91.92-2.32,1.4-3.15l1.02-1.77c.48-.83.83-1.97.79-2.54-.04-.57.33-1.24.82-1.48.78-.38.93-1.59.97-2.34.04-.85.44-1.55,1.18-2.04.22-.14.46-.26.64-.45.18-.19.3-.47.21-.71-.08-.21-.3-.34-.49-.46-.49-.33-.98-1.73-.82-2.33.11-.4.79-1.22,1.52-1.83l.88-.74c.73-.61,1.43-1.43,1.55-1.81.12-.38.88-1.1,1.7-1.6l.27-.16c.81-.5,1.39-1.24,1.28-1.66-.11-.42.12-1.02.5-1.33.38-.31.8-.87.92-1.24.07-.2.2-.45.37-.68.13-.19.28-.36.42-.48.31-.26.83-.48,1.16-.48s.86-.2,1.2-.44c.34-.24.79-.51,1-.59.22-.08.57-.48.79-.87.22-.4.14-.79-.17-.88-.31-.09-.7-.12-.85-.08-.16.04-.31-.15-.35-.43-.03-.28.15-.79.42-1.13.27-.34.52-.93.57-1.31.09-.76.75-1.2,1.38-1.51.12-.06.25-.14.25-.27,0-.17-.2-.26-.36-.3Z"/>
  </g>
  <path class="cls-1" d="M547.94,567.67l2.53,1.04c.51.21,1.34.21,1.85,0l2.62-1.06c.51-.21,1.37-.28,1.91-.17l2.93.59c.54.11,1.4.35,1.92.54l4.33,1.56c.52.19,1.33.56,1.82.82l4.36,2.41c.48.27,1.32.42,1.86.34l6.06-.86c.54-.08,1.44-.18,1.99-.24l9.51-.93c.55-.05,1.44-.02,1.98.06l1.67.27v-2.32c0-.55-.17-1.42-.38-1.92l-1.86-4.5c-.21-.51-.61-1.31-.89-1.78l-6.03-10.07c-.21-.35-.59-.79-.95-1.13l-7.13-.65c-.55-.05-1.4-.28-1.9-.51l-1.72-.8c-.5-.23-1.33-.58-1.84-.78l-2.82-1.09c-.51-.2-1.38-.4-1.93-.45l-4.92-.47c-.55-.05-1.29.24-1.65.66l-.41.47c-.36.41-1.03.94-1.48,1.16-.45.23-.92.85-1.04,1.39l-.55,2.49c-.12.54-.62,1.17-1.12,1.4l-1.15.54c-.5.23-1.33.56-1.86.72l-.23.07c-.53.16-1.2.67-1.5,1.13l-.06.1c-.3.46-.99.93-1.53,1.03l-1.99.39c-.54.11-1.39.38-1.89.61l-4.55,2.12c.16.34.26.72.26,1.03v2.99c0,.25-.09.51-.22.75l4.2,2.18c.49.25,1.3.63,1.81.84Z"/>
</svg>