<!--?xml version="1.0" encoding="utf-8"?-->
<!-- Generator: Adobe Illustrator 18.1.1, SVG Export Plug-In . SVG Version: 6.00 Build 0)  -->

<svg version="1.1" id="_x32_" xmlns="http://www.w3.org/2000/svg" xmlns:xlink="http://www.w3.org/1999/xlink" x="0px" y="0px" viewBox="0 0 512 512" style="width: 128px; height: 128px; opacity: 1;" xml:space="preserve">
<style type="text/css">
	.st0{fill:#4B4B4B;}
</style>
<g>
	<polygon class="st0" points="238.219,114.415 251.472,89.847 202.804,0 164.597,0 232.369,125.073 	" style="fill: rgb(75, 75, 75);"></polygon>
	<path class="st0" d="M366.31,245.713c-13.104-13.115-28.656-23.707-45.753-31.496v-23.884c0-7.855-3.019-14.988-7.949-20.294
		c-0.01-0.01-0.01-0.01-0.019-0.019l0.019-0.028L405.238,0h-38.114l-87.315,160.346h-0.029l-1.274,2.288l-5.024,9.233l-3.684,6.768
		l-4.227,7.77h35.976c0.45,1.191,0.732,2.559,0.732,3.928v16.817c-14.652-4.547-30.165-7.106-46.278-7.106
		c-14.979,0-29.499,2.128-43.241,6.093v-15.804c0-1.369,0.281-2.737,0.732-3.928h38.076l0.862-1.537l3.356-6.233h0.037l9.787-18.288
		h-0.01l5.84-10.798L353.027,0H314.82l-62.391,114.322l-19.104,35.226l-5.821,10.798h-2.943c-4.575,0-8.961,1.003-12.804,2.925
		c-0.01,0-0.01,0.01-0.018,0.01l0.374-0.675l7.002-12.964l6.243-11.614L150.49,0h-38.104l91.402,168.698
		c-5.755,5.399-9.308,13.142-9.308,21.634v22.525c-18.326,7.874-34.907,18.981-48.79,32.855
		c-28.187,28.186-45.669,67.284-45.669,110.309c0,43.016,17.482,82.086,45.669,110.272C173.877,494.509,212.985,512,256,512
		c43.015,0,82.123-17.491,110.31-45.706c28.177-28.186,45.668-67.256,45.668-110.272C411.978,312.997,394.487,273.9,366.31,245.713z
		 M214.775,183.753c0.01,0,0.01-0.019,0.018-0.019l-0.187,0.338C214.671,183.968,214.709,183.856,214.775,183.753z M169.312,269.906
		l9.533,9.477c-8.895,8.942-16.235,19.412-21.587,30.98l-12.195-5.652C151.09,291.709,159.329,279.954,169.312,269.906z
		 M138.041,387.968c-2.737-10.124-4.2-20.772-4.218-31.758v-0.216c0-3.458,0.14-6.871,0.422-10.254l13.395,1.106
		c-0.252,3.018-0.374,6.064-0.374,9.148v0.178v0.018c0.009,9.805,1.312,19.282,3.749,28.28L138.041,387.968z M186.138,456.284
		c-5.859-4.097-11.351-8.69-16.414-13.733c-4.996-4.986-9.561-10.405-13.639-16.188l10.977-7.743
		c3.637,5.147,7.705,9.974,12.158,14.417c4.508,4.49,9.392,8.586,14.613,12.232L186.138,456.284z M203.957,245.45
		c5.765-2.718,11.784-5.006,18.007-6.805c7.368-2.128,15.045-3.59,22.946-4.293l1.2,13.386c-7.03,0.628-13.863,1.931-20.415,3.824
		c-5.531,1.593-10.883,3.628-16.011,6.036L203.957,245.45z M256.179,478.199h-0.206c-10.836,0-21.344-1.406-31.346-4.059
		l3.432-12.992c8.895,2.352,18.241,3.609,27.915,3.609h0.197c3.215,0,6.393-0.15,9.532-0.422l1.172,13.386
		C263.359,478.03,259.787,478.19,256.179,478.199z M285.555,251.365l-1.819-0.506l3.45-12.983l2.044,0.554h-0.028
		c13.216,3.702,25.515,9.589,36.491,17.229l-7.677,11.023c-9.776-6.796-20.697-12.026-32.433-15.316l-0.084-0.018L285.555,251.365z
		 M342.528,442.288c-10.001,10.03-21.718,18.326-34.682,24.409l-5.709-12.167c11.53-5.408,21.963-12.795,30.877-21.728l0.263-0.263
		l9.552,9.449L342.528,442.288z M355.802,285.513c8.126,11.474,14.322,24.419,18.11,38.367l-12.964,3.525
		c-3.375-12.402-8.877-23.912-16.113-34.13L355.802,285.513z M354.808,401.522c5.194-11.258,8.512-23.538,9.571-36.51l13.385,1.096
		c-1.181,14.548-4.912,28.384-10.752,41.038L354.808,401.522z" style="fill: rgb(75, 75, 75);"></path>
</g>
</svg>
