<?xml version="1.0" encoding="UTF-8"?>
<svg id="_レイヤー_1" data-name="レイヤー 1" xmlns="http://www.w3.org/2000/svg" viewBox="0 0 1210.31 671.21">
  <defs>
    <style>
      .cls-1 {
        fill: #e4eee5;
      }
    </style>
  </defs>
  <polygon class="cls-1" points="954.39 99.2 953.23 118.34 933.07 116.62 925.31 126.27 910.16 110.78 891.68 101.21 830.73 124.08 794.76 123.12 760.64 126.85 742.64 113.64 727.21 102.46 718.16 89.24 698.56 77.34 680.42 59.21 647.49 44.45 629.8 64.42 619.58 76.71 604.56 60.18 574.35 48.09 562.36 54.94 543.62 54.83 520.23 36.75 508.81 30.26 495.13 30.15 465.75 14.3 427.92 5.67 406.66 28.35 404.43 39.77 390.48 69.17 380.2 95.11 361.07 115.29 354.02 136 357.99 156.98 359.01 166.19 340 168.1 334.45 198.2 302.84 191.64 273.05 215.22 254.23 197.38 250.81 220.18 224.63 239.82 199.39 236.42 170.28 250.54 139.43 270.97 115.76 306.41 88.44 315.71 65.84 302.15 45.97 313.51 30.81 342.49 5.67 365.85 6.52 389.84 28.8 423.05 29.42 437.3 19.95 462.1 69.96 481.06 86.09 505.32 102.45 520.88 127.39 522.79 157.83 526.83 183.85 552.33 203.34 537.75 234.7 540.36 236.05 519.54 267.47 498.46 285.98 502.39 305.68 480.86 317.07 480.98 354.16 511.06 376.99 511.28 392.63 522.06 411.71 524.88 446.56 527.53 464.45 549.77 495.73 558.44 499.39 550.06 533.16 562.8 588.91 562.27 604.06 579.95 609.86 584.42 623.96 615.44 662.17 618.3 675.53 644.54 683.07 651.16 693.12 654.08 701.1 648.16 714.86 651.36 739.89 648.74 767.39 639.26 796.05 633.65 816.32 620.74 841.21 604.2 841.07 631.22 821.92 648.28 847.3 644.34 843.04 665.54 866.4 655.6 888.01 637.38 897.22 635.63 920.49 647.17 925.69 637.77 933.3 621.74 947.65 611.92 980.49 610.48 998.21 611.07 1039.94 629.86 1058.33 621.6 1062.07 609.66 1054.65 597.29 1062.72 592.14 1074.83 588.39 1090.7 601.41 1112.37 600.77 1126.72 597.86 1129.35 614.49 1151.57 615.56 1164.64 617.31 1178.07 618.37 1181.21 636.39 1195 634.34 1194.04 575.09 1194.01 567.81 1204.64 526.76 1197.1 496.75 1180.04 467 1154.83 437.98 1145.53 425.32 1138.53 400.36 1131.16 388.91 1129.4 375.39 1119.23 353.54 1124.56 314.33 1110.05 302.58 1097.18 286.9 1078.24 254.63 1069.79 260.5 1051.37 249.25 1036.82 249.22 1029.06 227.47 1023.99 211.34 1016.13 193.13 1005.11 176.46 1001.72 168.63 998.31 158.24 990.72 111.27 971.09 98.73 954.39 99.2"/>
</svg>